<?xml version="1.0" standalone="no"?>
  <!DOCTYPE svg PUBLIC "-//W3C//DTD SVG 1.1//EN" "http://www.w3.org/Graphics/SVG/1.1/DTD/svg11.dtd" >
  <svg>
  <metadata>
  Created by font-carrier
  </metadata>
  <defs>
  <font id="STIXTwoText-SemiBold" horiz-adv-x="1342" vert-adv-y="1342" >
    <font-face
      
      font-family="STIX Two Text SemiBold"
      
      font-weight="400"
      
      font-stretch="normal"
      
      units-per-em="1000"
      
      ascent="762"
      
      descent="-238"
      
    />
      <missing-glyph />

      

      
      <glyph glyph-name="uni41" unicode="&#x41;" d="M224 0L2 0L2 38Q29 38 45.50 46.50Q62 55 76.50 78.50Q91 102 110 147L325 662L406 662L630 131Q651 83 672.50 60.50Q694 38 730 38L730 0L429 0L429 38Q442 38 456.50 40Q471 42 481 49Q491 56 491 72Q491 83 486 102.50Q481 122 472 143L439 226L431 250L330 522L326 522L216 250L209 226L169 129Q165 116 160.50 101.50Q156 87 156 74Q156 51 171.50 44.50Q187 38 224 38L224 0M456 214L191 214L208 262L439 262L456 214Z"  horiz-adv-x="738" vert-adv-y="1000"  />

      
      <glyph glyph-name="uni42" unicode="&#x42;" d="M372 0L35 0L35 38Q76 38 96 45Q116 52 123 72Q130 92 130 131L130 530Q130 569 122.50 588Q115 607 95 612.50Q75 618 35 618L35 657L346 657Q437 657 490 638.50Q543 620 566 586Q589 552 589 505Q589 438 548.50 404Q508 370 444 353L444 347Q487 341 527.50 323Q568 305 594 270.50Q620 236 620 177Q620 90 555.50 45Q491 0 372 0M320 45Q351 45 379.50 49Q408 53 429.50 65.50Q451 78 463.50 104.50Q476 131 476 177Q476 236 453.50 266.50Q431 297 396 307.50Q361 318 320 318L258 318L258 48Q273 47 288 46Q303 45 320 45M258 605L258 367L314 367Q394 367 422.50 395.50Q451 424 451 490Q451 549 421 578.50Q391 608 310 608Q298 608 285 607.50Q272 607 258 605Z"  horiz-adv-x="652" vert-adv-y="1000"  />

      
      <glyph glyph-name="uni43" unicode="&#x43;" d="M362-12Q255-12 185 31.50Q115 75 81 151Q47 227 47 324Q47 436 89.50 513Q132 590 207.50 629.50Q283 669 382 669Q435 669 466 660.50Q497 652 515 643.50Q533 635 547 635Q562 635 568 646Q574 657 580 669L618 669L618 429L575 429Q556 525 507 572Q458 619 381 619Q284 619 234 547.50Q184 476 184 344Q184 248 209.50 188Q235 128 284.50 100.50Q334 73 404 73Q476 73 524.50 98.50Q573 124 616 172L645 146Q614 102 577 66Q540 30 488.50 9Q437-12 362-12Z"  horiz-adv-x="679" vert-adv-y="1000"  />

      
      <glyph glyph-name="uni44" unicode="&#x44;" d="M325 0L35 0L35 38Q77 38 97.50 44.50Q118 51 124 71.50Q130 92 130 132L130 534Q130 571 121 588.50Q112 606 91.50 611.50Q71 617 35 617L35 657L318 657Q394 657 464 642.50Q534 628 588.50 592.50Q643 557 674.50 495Q706 433 706 337Q706 243 677.50 178.50Q649 114 597 74.50Q545 35 475.50 17.50Q406 0 325 0M308 50Q389 50 447 73Q505 96 536 155.50Q567 215 567 327Q567 462 502 534Q437 606 300 606Q290 606 280.50 606Q271 606 257 605L257 52Q270 51 283 50.50Q296 50 308 50Z"  horiz-adv-x="753" vert-adv-y="1000"  />

      
      <glyph glyph-name="uni45" unicode="&#x45;" d="M594 0L35 0L35 38Q72 38 92.50 43.50Q113 49 121.50 67Q130 85 130 123L130 527Q130 565 123.50 584.50Q117 604 96.50 611Q76 618 35 618L35 657L584 657L590 482L546 482Q539 529 525.50 555Q512 581 482.50 591Q453 601 395 601L257 601L257 362L357 362Q405 362 428.50 368Q452 374 459.50 393.50Q467 413 467 452L508 452L508 221L467 221Q467 263 459.50 282.50Q452 302 428.50 307.50Q405 313 357 313L257 313L257 55L379 55Q432 55 465 60.50Q498 66 518 81Q538 96 551 123Q564 150 577 193L619 193L594 0Z"  horiz-adv-x="647" vert-adv-y="1000"  />

      
      <glyph glyph-name="uni46" unicode="&#x46;" d="M361 0L35 0L35 38Q74 38 94.50 44.50Q115 51 122.50 69.50Q130 88 130 125L130 535Q130 570 122 588Q114 606 93.50 612Q73 618 35 618L35 657L586 657L593 480L548 480Q542 516 534.50 539.50Q527 563 512 576Q497 589 468.50 595Q440 601 391 601L257 601L257 359L349 359Q392 359 416.50 366Q441 373 451.50 393.50Q462 414 462 454L504 454L504 221L462 221Q462 262 451.50 280.50Q441 299 416.50 305Q392 311 349 311L257 311L257 118Q257 84 266.50 67Q276 50 299 44Q322 38 361 38L361 0Z"  horiz-adv-x="607" vert-adv-y="1000"  />

      
      <glyph glyph-name="uni47" unicode="&#x47;" d="M376-11Q210-11 128.50 77.50Q47 166 47 327Q47 442 90.50 518Q134 594 209 631.50Q284 669 379 669Q433 669 465 660Q497 651 515.50 641.50Q534 632 547 632Q562 632 568.50 643Q575 654 581 669L619 669L619 432L576 432Q558 532 508 575.50Q458 619 379 619Q281 619 232.50 547Q184 475 184 342Q184 193 232.50 118Q281 43 381 43Q426 43 456.50 54.50Q487 66 515 89L515 184Q515 220 509 238.50Q503 257 484.50 263.50Q466 270 428 270L428 310L698 310L698 270Q656 270 643.50 255.50Q631 241 631 194L631 57Q576 26 517.50 7.50Q459-11 376-11Z"  horiz-adv-x="732" vert-adv-y="1000"  />

      
      <glyph glyph-name="uni48" unicode="&#x48;" d="M351 0L35 0L35 38Q79 38 99 45Q119 52 124.50 74Q130 96 130 139L130 516Q130 555 125 577.50Q120 600 100.50 609.50Q81 619 35 619L35 657L353 657L353 619Q308 619 287.50 609.50Q267 600 262.50 578Q258 556 258 516L258 359L562 359L562 516Q562 556 556.50 578Q551 600 531 609.50Q511 619 467 619L467 657L786 657L786 619Q740 619 719.50 609.50Q699 600 694 578Q689 556 689 516L689 139Q689 96 695 74Q701 52 721.50 45Q742 38 786 38L786 0L467 0L467 38Q511 38 531 45Q551 52 556.50 74Q562 96 562 139L562 310L258 310L258 139Q258 95 263 73.50Q268 52 288 45Q308 38 351 38L351 0Z"  horiz-adv-x="819" vert-adv-y="1000"  />

      
      <glyph glyph-name="uni49" unicode="&#x49;" d="M350 0L35 0L35 38Q79 38 99 45.50Q119 53 124.50 74.50Q130 96 130 139L130 516Q130 556 124.50 578Q119 600 99 609.50Q79 619 35 619L35 657L352 657L352 619Q307 619 286.50 609.50Q266 600 261.50 577.50Q257 555 257 516L257 139Q257 97 262.50 75Q268 53 287.50 45.50Q307 38 350 38L350 0Z"  horiz-adv-x="387" vert-adv-y="1000"  />

      
      <glyph glyph-name="uni4a" unicode="&#x4a;" d="M132-13Q100-13 69-4.50Q38 4 19 23Q0 42 0 75Q0 101 14.50 117Q29 133 54 133Q75 133 87.50 122.50Q100 112 107.50 97Q115 82 121.50 66.50Q128 51 136.50 40.50Q145 30 159 30Q187 30 196 51Q205 72 205 129L205 516Q205 556 199.50 578Q194 600 173 609.50Q152 619 104 619L104 657L427 657L427 619Q383 619 363 609.50Q343 600 338 577.50Q333 555 333 516L333 160Q333 106 316 71.50Q299 37 270 18.50Q241 0 205.50-6.50Q170-13 132-13Z"  horiz-adv-x="443" vert-adv-y="1000"  />

      
      <glyph glyph-name="uni4b" unicode="&#x4b;" d="M350 0L35 0L35 38Q79 38 99 45.50Q119 53 124.50 74.50Q130 96 130 139L130 516Q130 556 125 578Q120 600 100 609.50Q80 619 35 619L35 657L353 657L353 619Q307 619 286.50 609.50Q266 600 261.50 577.50Q257 555 257 516L257 338L262 338L430 496Q463 526 477.50 545.50Q492 565 492 587Q492 603 483.50 610.50Q475 618 455 618L438 618L438 657L700 657L700 618Q672 617 652 610.50Q632 604 613 590.50Q594 577 566 551L368 370L651 82Q674 58 695.50 48Q717 38 752 38L752 0L424 0L424 38L442 38Q459 38 469.50 43Q480 48 480 59Q480 75 468 92.50Q456 110 427.50 140Q399 170 349 219L266 306L257 306L257 139Q257 97 262.50 75.50Q268 54 288 46Q308 38 350 38L350 0Z"  horiz-adv-x="755" vert-adv-y="1000"  />

      
      <glyph glyph-name="uni4c" unicode="&#x4c;" d="M579 0L37 0L37 38Q78 38 98 45Q118 52 124 72Q130 92 130 131L130 522Q130 560 124 581Q118 602 98.50 610.50Q79 619 38 619L38 657L356 657L356 619Q314 619 293 610.50Q272 602 265 581Q258 560 258 521L258 111Q258 75 273.50 64.50Q289 54 333 54L389 54Q434 54 462.50 61Q491 68 509 85.50Q527 103 539 132Q551 161 564 205L608 205L579 0Z"  horiz-adv-x="625" vert-adv-y="1000"  />

      
      <glyph glyph-name="uni4d" unicode="&#x4d;" d="M274 0L27 0L27 38Q67 38 86.50 44.50Q106 51 113 75Q120 99 120 150L120 526Q120 564 113 584Q106 604 86.50 611.50Q67 619 29 619L29 657L281 657L478 179L484 179L680 657L915 657L915 619Q881 619 862 611.50Q843 604 836 584Q829 564 829 527L829 122Q829 88 836.50 70Q844 52 863 45Q882 38 916 38L916 0L614 0L614 38Q653 38 672 45Q691 52 697 70Q703 88 703 122L703 532L697 532L475 0L416 0L190 532L185 532L185 150Q185 99 191.50 75Q198 51 217 44.50Q236 38 274 38L274 0Z"  horiz-adv-x="959" vert-adv-y="1000"  />

      
      <glyph glyph-name="uni4e" unicode="&#x4e;" d="M664-7L579-7L185 516L152 516L126 561Q108 586 93.50 598Q79 610 63.50 614.50Q48 619 26 619L26 657L240 657L598 182L603 182L603 490Q603 532 598 560.50Q593 589 573.50 604Q554 619 508 619L508 657L754 657L754 619Q713 619 693.50 604Q674 589 669 559.50Q664 530 664 488L664-7M271 0L26 0L26 38Q66 38 86 58.50Q106 79 113 116Q120 153 120 203L120 587L180 587L180 157Q180 107 187 81.50Q194 56 214 47Q234 38 271 38L271 0Z"  horiz-adv-x="775" vert-adv-y="1000"  />

      
      <glyph glyph-name="uni4f" unicode="&#x4f;" d="M372-13Q269-13 196.50 27Q124 67 85.50 144Q47 221 47 329Q47 433 85.50 509Q124 585 197.50 627Q271 669 372 669Q475 669 547.50 629Q620 589 658.50 514.50Q697 440 697 338Q697 230 658.50 151.50Q620 73 547.50 30Q475-13 372-13M373 35Q468 35 514 108.50Q560 182 560 335Q560 427 536.50 491Q513 555 470 588.50Q427 622 369 622Q284 622 234 547.50Q184 473 184 335Q184 194 231 114.50Q278 35 373 35Z"  horiz-adv-x="744" vert-adv-y="1000"  />

      
      <glyph glyph-name="uni50" unicode="&#x50;" d="M366 0L38 0L38 38Q80 38 99 45Q118 52 124 72.50Q130 93 130 135L130 543Q130 590 110.50 604.50Q91 619 40 619L40 657L336 657Q385 657 431.50 650Q478 643 514 624Q550 605 571.50 571.50Q593 538 593 485Q593 425 571 385Q549 345 511.50 321Q474 297 426 287Q378 277 326 277Q309 277 290.50 280.50Q272 284 258 288L258 131Q258 91 265 71Q272 51 295.50 44.50Q319 38 366 38L366 0M311 329Q360 329 393 341Q426 353 442.50 384.50Q459 416 459 475Q459 544 424 578Q389 612 311 612Q297 612 285 611Q273 610 258 608L258 334Q268 333 280 331Q292 329 311 329Z"  horiz-adv-x="619" vert-adv-y="1000"  />

      
      <glyph glyph-name="uni51" unicode="&#x51;" d="M449-4L345-12Q250-6 183.50 35Q117 76 82 150.50Q47 225 47 329Q47 433 85.50 509Q124 585 197.50 627Q271 669 372 669Q475 669 547.50 629Q620 589 658.50 514.50Q697 440 697 338Q697 246 667.50 174Q638 102 582.50 56Q527 10 449-4M709-174L660-174Q574-174 514-163Q454-152 414-125.50Q374-99 350-53L320 4L465 15L465-3Q500-53 532.50-82Q565-111 607-123Q649-135 709-135L709-174M373 35Q468 35 514 108.50Q560 182 560 335Q560 427 536.50 491Q513 555 470 588.50Q427 622 369 622Q284 622 234 547.50Q184 473 184 335Q184 194 231 114.50Q278 35 373 35Z"  horiz-adv-x="744" vert-adv-y="1000"  />

      
      <glyph glyph-name="uni52" unicode="&#x52;" d="M357 0L38 0L38 38Q76 38 95.50 44Q115 50 122 70Q129 90 129 132L129 542Q129 572 123 588.50Q117 605 97.50 612Q78 619 38 619L38 657L334 657Q406 657 465.50 642Q525 627 560 590.50Q595 554 595 490Q595 435 571.50 400.50Q548 366 511.50 347Q475 328 433 318L433 313Q449 303 468.50 280Q488 257 520 211.50Q552 166 606 89Q630 56 653.50 47Q677 38 711 38L711 0L507 0Q471 61 447 101Q423 141 406 167.50Q389 194 375.50 215.50Q362 237 347 260Q333 283 320 288.50Q307 294 281 294L258 294L258 131Q258 91 265 70.50Q272 50 293 44Q314 38 357 38L357 0M258 339L296 338Q348 341 384.50 355Q421 369 440.50 400Q460 431 460 485Q460 543 427 577.50Q394 612 320 612Q304 612 288.50 611.50Q273 611 258 609L258 339Z"  horiz-adv-x="703" vert-adv-y="1000"  />

      
      <glyph glyph-name="uni53" unicode="&#x53;" d="M81-14L42-14L33 202L76 202Q93 136 114 101Q135 66 166 53Q197 40 241 40Q275 40 303 49Q331 58 348 79Q365 100 365 135Q365 178 342.50 206Q320 234 285 255Q250 276 210 295Q166 318 127 344Q88 370 64.50 407.50Q41 445 41 503Q41 557 67.50 593.50Q94 630 141.50 649Q189 668 251 668Q292 668 316.50 661.50Q341 655 356.50 648.50Q372 642 384 642Q394 642 402.50 647Q411 652 415 668L448 668L455 461L414 461Q392 549 356 586.50Q320 624 257 624Q205 624 177.50 603.50Q150 583 150 540Q150 503 171 478.50Q192 454 226.50 435Q261 416 300 396Q335 378 368.50 359Q402 340 429 314.50Q456 289 472.50 255Q489 221 489 175Q489 114 459 72.50Q429 31 376.50 9.50Q324-12 255-12Q206-12 177.50-4.50Q149 3 133.50 10.50Q118 18 107 18Q96 18 88.50 9.50Q81 1 81-14Z"  horiz-adv-x="520" vert-adv-y="1000"  />

      
      <glyph glyph-name="uni54" unicode="&#x54;" d="M480 0L157 0L157 38Q200 38 221 44.50Q242 51 248.50 73Q255 95 255 140L255 605L203 605Q148 605 120.50 593Q93 581 81 550.50Q69 520 58 466L15 466L26 657L614 657L623 466L580 466Q569 520 556.50 550.50Q544 581 517 593Q490 605 434 605L383 605L383 140Q383 95 390 73Q397 51 417.50 44.50Q438 38 480 38L480 0Z"  horiz-adv-x="638" vert-adv-y="1000"  />

      
      <glyph glyph-name="uni55" unicode="&#x55;" d="M400-13Q253-13 187 48Q121 109 121 248L121 531Q121 566 113.50 585Q106 604 85.50 611.50Q65 619 25 619L25 657L344 657L344 619Q303 619 282.50 611.50Q262 604 255.50 584Q249 564 249 526L249 260Q249 195 264.50 151Q280 107 318.50 85Q357 63 425 63Q521 63 564 107Q607 151 607 254L607 490Q607 543 601 571Q595 599 575 609Q555 619 513 619L513 657L767 657L767 619Q724 619 704 609Q684 599 678.50 572Q673 545 673 493L673 263Q673 125 610 56Q547-13 400-13Z"  horiz-adv-x="782" vert-adv-y="1000"  />

      
      <glyph glyph-name="uni56" unicode="&#x56;" d="M387-5L322-5L86 529Q72 562 58.50 581.50Q45 601 27.50 610Q10 619-19 619L-19 657L290 657L290 619Q273 619 257.50 616.50Q242 614 232 606Q222 598 222 580Q222 556 236 523L352 253L390 153L397 153L434 253L548 540Q551 547 554 559Q557 571 557 584Q557 604 541.50 611.50Q526 619 493 619L493 657L714 657L714 619Q692 619 677 614Q662 609 649.50 594.50Q637 580 623 551Q609 522 588 473L387-5Z"  horiz-adv-x="699" vert-adv-y="1000"  />

      
      <glyph glyph-name="uni57" unicode="&#x57;" d="M732-7L663-7L512 395L499 429L466 523Q451 567 439 587Q427 607 411 613Q395 619 367 619L367 657L660 657L660 619Q585 619 585 582Q585 570 590.50 555.50Q596 541 601 525L699 264L727 176L733 176L840 497Q842 503 846 515.50Q850 528 853 543Q856 558 856 571Q856 601 837.50 610Q819 619 788 619L788 657L1006 657L1006 619Q971 618 954 602.50Q937 587 923 549L732-7M372-7L307-7L96 517Q74 574 53.50 595Q33 616-4 619L-4 657L287 657L287 619Q249 619 235.50 611Q222 603 222 587Q222 568 234 536L347 256L375 175L381 175L497 466L542 367L517 367L372-7Z"  horiz-adv-x="1008" vert-adv-y="1000"  />

      
      <glyph glyph-name="uni58" unicode="&#x58;" d="M686 0L364 0L364 38L372 38Q404 38 416.50 43.50Q429 49 429 66Q429 82 423.50 98Q418 114 398 144L342 230L306 293L288 313L123 544Q103 572 89 588.50Q75 605 57 611.50Q39 618 4 618L4 657L320 657L320 618L310 618Q282 618 269.50 612Q257 606 257 588Q257 575 267 556.50Q277 538 289.50 519.50Q302 501 311 485L370 386L389 367L581 100Q607 64 628.50 51.50Q650 39 686 38L686 0M239 0L0 0L0 38Q24 38 39.50 44.50Q55 51 70.50 66Q86 81 107 107L288 334L327 281L310 281L198 129Q189 117 179.50 101.50Q170 86 170 68Q170 53 184 45.50Q198 38 239 38L239 0M530 525L388 347L351 397L367 397L463 531Q476 550 483.50 563.50Q491 577 491 593Q491 606 478 612Q465 618 428 618L428 657L668 657L668 618Q637 617 617 609Q597 601 578 581.50Q559 562 530 525Z"  horiz-adv-x="687" vert-adv-y="1000"  />

      
      <glyph glyph-name="uni59" unicode="&#x59;" d="M501 0L172 0L172 38Q216 38 237 43.50Q258 49 264.50 70Q271 91 271 135L271 260L139 480Q110 529 90 556.50Q70 584 54 597.50Q38 611 24 615Q10 619-8 619L-8 657L287 657L287 619Q247 619 235.50 613Q224 607 224 596Q224 578 239 552L325 403L366 323L372 323L499 558Q503 565 506 575Q509 585 509 593Q509 605 498.50 612Q488 619 450 619L450 657L673 657L673 619Q645 617 625.50 610.50Q606 604 589 585.50Q572 567 548 528L399 261L399 135Q399 91 407.50 70.50Q416 50 438.50 44Q461 38 501 38L501 0Z"  horiz-adv-x="665" vert-adv-y="1000"  />

      
      <glyph glyph-name="uni5a" unicode="&#x5a;" d="M556 0L28 0L28 45L416 595L416 601L254 601Q207 601 176 591.50Q145 582 127.50 554Q110 526 100 470L54 470L67 657L577 657L577 612L193 61L193 55L361 55Q422 55 455 69Q488 83 505 115Q522 147 535 201L582 201L556 0Z"  horiz-adv-x="609" vert-adv-y="1000"  />

      
      <glyph glyph-name="unic0" unicode="&#xc0;" d="M224 0L2 0L2 38Q29 38 45.50 46.50Q62 55 76.50 78.50Q91 102 110 147L325 662L406 662L630 131Q651 83 672.50 60.50Q694 38 730 38L730 0L429 0L429 38Q442 38 456.50 40Q471 42 481 49Q491 56 491 72Q491 83 486 102.50Q481 122 472 143L439 226L431 250L330 522L326 522L216 250L209 226L169 129Q165 116 160.50 101.50Q156 87 156 74Q156 51 171.50 44.50Q187 38 224 38L224 0M456 214L191 214L208 262L439 262L456 214M466 698L408 698L250 801L250 829L364 829L466 698Z"  horiz-adv-x="738" vert-adv-y="1000"  />

      
      <glyph glyph-name="unic1" unicode="&#xc1;" d="M224 0L2 0L2 38Q29 38 45.50 46.50Q62 55 76.50 78.50Q91 102 110 147L325 662L406 662L630 131Q651 83 672.50 60.50Q694 38 730 38L730 0L429 0L429 38Q442 38 456.50 40Q471 42 481 49Q491 56 491 72Q491 83 486 102.50Q481 122 472 143L439 226L431 250L330 522L326 522L216 250L209 226L169 129Q165 116 160.50 101.50Q156 87 156 74Q156 51 171.50 44.50Q187 38 224 38L224 0M456 214L191 214L208 262L439 262L456 214M320 698L262 698L365 829L478 829L478 801L320 698Z"  horiz-adv-x="738" vert-adv-y="1000"  />

      
      <glyph glyph-name="unic2" unicode="&#xc2;" d="M224 0L2 0L2 38Q29 38 45.50 46.50Q62 55 76.50 78.50Q91 102 110 147L325 662L406 662L630 131Q651 83 672.50 60.50Q694 38 730 38L730 0L429 0L429 38Q442 38 456.50 40Q471 42 481 49Q491 56 491 72Q491 83 486 102.50Q481 122 472 143L439 226L431 250L330 522L326 522L216 250L209 226L169 129Q165 116 160.50 101.50Q156 87 156 74Q156 51 171.50 44.50Q187 38 224 38L224 0M456 214L191 214L208 262L439 262L456 214M261 698L206 698L321 837L407 837L523 698L469 698L364 771L261 698Z"  horiz-adv-x="738" vert-adv-y="1000"  />

      
      <glyph glyph-name="uni1EA6" unicode="&#x1EA6;" d="M224 0L2 0L2 38Q29 38 45.50 46.50Q62 55 76.50 78.50Q91 102 110 147L325 662L406 662L630 131Q651 83 672.50 60.50Q694 38 730 38L730 0L429 0L429 38Q442 38 456.50 40Q471 42 481 49Q491 56 491 72Q491 83 486 102.50Q481 122 472 143L439 226L431 250L330 522L326 522L216 250L209 226L169 129Q165 116 160.50 101.50Q156 87 156 74Q156 51 171.50 44.50Q187 38 224 38L224 0M456 214L191 214L208 262L439 262L456 214M261 693L206 693L322 827L406 827L523 693L469 693L364 766L261 693M613 763L561 763L422 856L422 884L513 884L613 763Z"  horiz-adv-x="738" vert-adv-y="1000"  />

      
      <glyph glyph-name="uni1EA4" unicode="&#x1EA4;" d="M224 0L2 0L2 38Q29 38 45.50 46.50Q62 55 76.50 78.50Q91 102 110 147L325 662L406 662L630 131Q651 83 672.50 60.50Q694 38 730 38L730 0L429 0L429 38Q442 38 456.50 40Q471 42 481 49Q491 56 491 72Q491 83 486 102.50Q481 122 472 143L439 226L431 250L330 522L326 522L216 250L209 226L169 129Q165 116 160.50 101.50Q156 87 156 74Q156 51 171.50 44.50Q187 38 224 38L224 0M456 214L191 214L208 262L439 262L456 214M261 693L206 693L322 827L406 827L523 693L469 693L364 766L261 693M524 763L472 763L571 884L662 884L662 856L524 763Z"  horiz-adv-x="738" vert-adv-y="1000"  />

      
      <glyph glyph-name="uni1EAA" unicode="&#x1EAA;" d="M224 0L2 0L2 38Q29 38 45.50 46.50Q62 55 76.50 78.50Q91 102 110 147L325 662L406 662L630 131Q651 83 672.50 60.50Q694 38 730 38L730 0L429 0L429 38Q442 38 456.50 40Q471 42 481 49Q491 56 491 72Q491 83 486 102.50Q481 122 472 143L439 226L431 250L330 522L326 522L216 250L209 226L169 129Q165 116 160.50 101.50Q156 87 156 74Q156 51 171.50 44.50Q187 38 224 38L224 0M456 214L191 214L208 262L439 262L456 214M261 693L206 693L322 823L406 823L523 693L469 693L364 763L261 693M240 837L206 837Q215 885 242 912.50Q269 940 306 940Q330 940 354 932.50Q378 925 401 917Q424 909 445 909Q465 909 478.50 917.50Q492 926 498 944L531 944Q521 889 495.50 866Q470 843 432 843Q407 843 383.50 850.50Q360 858 338 865.50Q316 873 295 873Q274 873 260 864Q246 855 240 837Z"  horiz-adv-x="738" vert-adv-y="1000"  />

      
      <glyph glyph-name="uni1EA8" unicode="&#x1EA8;" d="M224 0L2 0L2 38Q29 38 45.50 46.50Q62 55 76.50 78.50Q91 102 110 147L325 662L406 662L630 131Q651 83 672.50 60.50Q694 38 730 38L730 0L429 0L429 38Q442 38 456.50 40Q471 42 481 49Q491 56 491 72Q491 83 486 102.50Q481 122 472 143L439 226L431 250L330 522L326 522L216 250L209 226L169 129Q165 116 160.50 101.50Q156 87 156 74Q156 51 171.50 44.50Q187 38 224 38L224 0M456 214L191 214L208 262L439 262L456 214M261 693L206 693L322 827L406 827L523 693L469 693L364 766L261 693M526 763L474 763L474 814Q508 815 522 830.50Q536 846 536 880Q536 908 528 916Q520 924 509 924Q493 924 485.50 917Q478 910 474.50 901Q471 892 465.50 885Q460 878 447 878Q432 878 424 887Q416 896 416 908Q416 933 446 945.50Q476 958 511 958Q560 958 585 935Q610 912 610 878Q610 849 595.50 831.50Q581 814 561 805.50Q541 797 526 794L526 763Z"  horiz-adv-x="738" vert-adv-y="1000"  />

      
      <glyph glyph-name="uni1EAC" unicode="&#x1EAC;" d="M224 0L2 0L2 38Q29 38 45.50 46.50Q62 55 76.50 78.50Q91 102 110 147L325 662L406 662L630 131Q651 83 672.50 60.50Q694 38 730 38L730 0L429 0L429 38Q442 38 456.50 40Q471 42 481 49Q491 56 491 72Q491 83 486 102.50Q481 122 472 143L439 226L431 250L330 522L326 522L216 250L209 226L169 129Q165 116 160.50 101.50Q156 87 156 74Q156 51 171.50 44.50Q187 38 224 38L224 0M456 214L191 214L208 262L439 262L456 214M261 698L206 698L321 837L407 837L523 698L469 698L364 771L261 698M337-206Q304-206 284.50-186Q265-166 265-135Q265-105 284-85Q303-65 337-65Q372-65 390.50-84.50Q409-104 409-135Q409-166 390.50-186Q372-206 337-206Z"  horiz-adv-x="738" vert-adv-y="1000"  />

      
      <glyph glyph-name="unic3" unicode="&#xc3;" d="M224 0L2 0L2 38Q29 38 45.50 46.50Q62 55 76.50 78.50Q91 102 110 147L325 662L406 662L630 131Q651 83 672.50 60.50Q694 38 730 38L730 0L429 0L429 38Q442 38 456.50 40Q471 42 481 49Q491 56 491 72Q491 83 486 102.50Q481 122 472 143L439 226L431 250L330 522L326 522L216 250L209 226L169 129Q165 116 160.50 101.50Q156 87 156 74Q156 51 171.50 44.50Q187 38 224 38L224 0M456 214L191 214L208 262L439 262L456 214M238 705L203 705Q212 752 238 782Q264 812 307 812Q332 812 355.50 804.50Q379 797 401.50 789Q424 781 446 781Q468 781 481 790Q494 799 501 816L534 816Q524 762 499 735.50Q474 709 431 709Q404 709 381.50 717Q359 725 337.50 733Q316 741 293 741Q271 741 257.50 731.50Q244 722 238 705Z"  horiz-adv-x="738" vert-adv-y="1000"  />

      
      <glyph glyph-name="unic4" unicode="&#xc4;" d="M224 0L2 0L2 38Q29 38 45.50 46.50Q62 55 76.50 78.50Q91 102 110 147L325 662L406 662L630 131Q651 83 672.50 60.50Q694 38 730 38L730 0L429 0L429 38Q442 38 456.50 40Q471 42 481 49Q491 56 491 72Q491 83 486 102.50Q481 122 472 143L439 226L431 250L330 522L326 522L216 250L209 226L169 129Q165 116 160.50 101.50Q156 87 156 74Q156 51 171.50 44.50Q187 38 224 38L224 0M456 214L191 214L208 262L439 262L456 214M474 702Q443 702 425 720.50Q407 739 407 768Q407 798 425 816Q443 834 474 834Q506 834 524 816Q542 798 542 769Q542 739 524 720.50Q506 702 474 702M253 702Q222 702 204 720.50Q186 739 186 768Q186 798 204 816Q222 834 253 834Q285 834 303 816Q321 798 321 769Q321 739 303 720.50Q285 702 253 702Z"  horiz-adv-x="738" vert-adv-y="1000"  />

      
      <glyph glyph-name="uni01DE" unicode="&#x01DE;" d="M224 0L2 0L2 38Q29 38 45.50 46.50Q62 55 76.50 78.50Q91 102 110 147L325 662L406 662L630 131Q651 83 672.50 60.50Q694 38 730 38L730 0L429 0L429 38Q442 38 456.50 40Q471 42 481 49Q491 56 491 72Q491 83 486 102.50Q481 122 472 143L439 226L431 250L330 522L326 522L216 250L209 226L169 129Q165 116 160.50 101.50Q156 87 156 74Q156 51 171.50 44.50Q187 38 224 38L224 0M456 214L191 214L208 262L439 262L456 214M474 692Q443 692 425 710.50Q407 729 407 758Q407 788 425 806Q443 824 474 824Q506 824 524 806Q542 788 542 759Q542 729 524 710.50Q506 692 474 692M253 692Q222 692 204 710.50Q186 729 186 758Q186 788 204 806Q222 824 253 824Q285 824 303 806Q321 788 321 759Q321 729 303 710.50Q285 692 253 692M517 855L211 855L211 924L517 924L517 855Z"  horiz-adv-x="738" vert-adv-y="1000"  />

      
      <glyph glyph-name="uni0100" unicode="&#x0100;" d="M224 0L2 0L2 38Q29 38 45.50 46.50Q62 55 76.50 78.50Q91 102 110 147L325 662L406 662L630 131Q651 83 672.50 60.50Q694 38 730 38L730 0L429 0L429 38Q442 38 456.50 40Q471 42 481 49Q491 56 491 72Q491 83 486 102.50Q481 122 472 143L439 226L431 250L330 522L326 522L216 250L209 226L169 129Q165 116 160.50 101.50Q156 87 156 74Q156 51 171.50 44.50Q187 38 224 38L224 0M456 214L191 214L208 262L439 262L456 214M517 726L211 726L211 795L517 795L517 726Z"  horiz-adv-x="738" vert-adv-y="1000"  />

      
      <glyph glyph-name="uni0102" unicode="&#x0102;" d="M224 0L2 0L2 38Q29 38 45.50 46.50Q62 55 76.50 78.50Q91 102 110 147L325 662L406 662L630 131Q651 83 672.50 60.50Q694 38 730 38L730 0L429 0L429 38Q442 38 456.50 40Q471 42 481 49Q491 56 491 72Q491 83 486 102.50Q481 122 472 143L439 226L431 250L330 522L326 522L216 250L209 226L169 129Q165 116 160.50 101.50Q156 87 156 74Q156 51 171.50 44.50Q187 38 224 38L224 0M456 214L191 214L208 262L439 262L456 214M364 704Q294 704 253 740.50Q212 777 209 856L247 856Q257 814 288.50 796Q320 778 363 778Q408 778 438 796Q468 814 481 856L518 856Q510 777 471.50 740.50Q433 704 364 704Z"  horiz-adv-x="738" vert-adv-y="1000"  />

      
      <glyph glyph-name="uni1EB0" unicode="&#x1EB0;" d="M224 0L2 0L2 38Q29 38 45.50 46.50Q62 55 76.50 78.50Q91 102 110 147L325 662L406 662L630 131Q651 83 672.50 60.50Q694 38 730 38L730 0L429 0L429 38Q442 38 456.50 40Q471 42 481 49Q491 56 491 72Q491 83 486 102.50Q481 122 472 143L439 226L431 250L330 522L326 522L216 250L209 226L169 129Q165 116 160.50 101.50Q156 87 156 74Q156 51 171.50 44.50Q187 38 224 38L224 0M456 214L191 214L208 262L439 262L456 214M364 697Q294 697 253 733Q212 769 209 848L247 848Q258 803 288.50 785Q319 767 363 767Q408 767 437.50 785Q467 803 481 848L518 848Q510 769 471.50 733Q433 697 364 697M428 798L376 798L247 891L247 919L338 919L428 798Z"  horiz-adv-x="738" vert-adv-y="1000"  />

      
      <glyph glyph-name="uni1EAE" unicode="&#x1EAE;" d="M224 0L2 0L2 38Q29 38 45.50 46.50Q62 55 76.50 78.50Q91 102 110 147L325 662L406 662L630 131Q651 83 672.50 60.50Q694 38 730 38L730 0L429 0L429 38Q442 38 456.50 40Q471 42 481 49Q491 56 491 72Q491 83 486 102.50Q481 122 472 143L439 226L431 250L330 522L326 522L216 250L209 226L169 129Q165 116 160.50 101.50Q156 87 156 74Q156 51 171.50 44.50Q187 38 224 38L224 0M456 214L191 214L208 262L439 262L456 214M364 697Q294 697 253 733Q212 769 209 848L247 848Q258 803 288.50 785Q319 767 363 767Q408 767 437.50 785Q467 803 481 848L518 848Q510 769 471.50 733Q433 697 364 697M352 798L299 798L389 919L480 919L480 891L352 798Z"  horiz-adv-x="738" vert-adv-y="1000"  />

      
      <glyph glyph-name="uni1EB4" unicode="&#x1EB4;" d="M224 0L2 0L2 38Q29 38 45.50 46.50Q62 55 76.50 78.50Q91 102 110 147L325 662L406 662L630 131Q651 83 672.50 60.50Q694 38 730 38L730 0L429 0L429 38Q442 38 456.50 40Q471 42 481 49Q491 56 491 72Q491 83 486 102.50Q481 122 472 143L439 226L431 250L330 522L326 522L216 250L209 226L169 129Q165 116 160.50 101.50Q156 87 156 74Q156 51 171.50 44.50Q187 38 224 38L224 0M456 214L191 214L208 262L439 262L456 214M364 697Q295 697 254 732.50Q213 768 209 845L247 845Q259 802 289 784.50Q319 767 363 767Q408 767 437.50 784.50Q467 802 480 845L518 845Q510 768 471.50 732.50Q433 697 364 697M241 863L207 863Q216 911 242.50 938Q269 965 306 965Q330 965 354 957.50Q378 950 401 942.50Q424 935 445 935Q465 935 478 943.50Q491 952 497 969L531 969Q520 915 495 892Q470 869 432 869Q408 869 384.50 876.50Q361 884 339 891.50Q317 899 295 899Q275 899 261 890Q247 881 241 863Z"  horiz-adv-x="738" vert-adv-y="1000"  />

      
      <glyph glyph-name="uni1EB2" unicode="&#x1EB2;" d="M224 0L2 0L2 38Q29 38 45.50 46.50Q62 55 76.50 78.50Q91 102 110 147L325 662L406 662L630 131Q651 83 672.50 60.50Q694 38 730 38L730 0L429 0L429 38Q442 38 456.50 40Q471 42 481 49Q491 56 491 72Q491 83 486 102.50Q481 122 472 143L439 226L431 250L330 522L326 522L216 250L209 226L169 129Q165 116 160.50 101.50Q156 87 156 74Q156 51 171.50 44.50Q187 38 224 38L224 0M456 214L191 214L208 262L439 262L456 214M364 697Q294 697 253 733Q212 769 209 848L247 848Q258 803 288.50 785Q319 767 363 767Q408 767 437.50 785Q467 803 481 848L518 848Q510 769 471.50 733Q433 697 364 697M382 794L330 794L330 846Q364 847 378 862.50Q392 878 392 911Q392 939 384 947Q376 955 365 955Q349 955 341.50 948.50Q334 942 330.50 932.50Q327 923 321.50 916.50Q316 910 303 910Q288 910 280 918.50Q272 927 272 939Q272 964 302 977Q332 990 367 990Q416 990 441 966.50Q466 943 466 909Q466 880 451.50 862.50Q437 845 417 837Q397 829 382 826L382 794Z"  horiz-adv-x="738" vert-adv-y="1000"  />

      
      <glyph glyph-name="uni1EB6" unicode="&#x1EB6;" d="M224 0L2 0L2 38Q29 38 45.50 46.50Q62 55 76.50 78.50Q91 102 110 147L325 662L406 662L630 131Q651 83 672.50 60.50Q694 38 730 38L730 0L429 0L429 38Q442 38 456.50 40Q471 42 481 49Q491 56 491 72Q491 83 486 102.50Q481 122 472 143L439 226L431 250L330 522L326 522L216 250L209 226L169 129Q165 116 160.50 101.50Q156 87 156 74Q156 51 171.50 44.50Q187 38 224 38L224 0M456 214L191 214L208 262L439 262L456 214M337-206Q304-206 284.50-186Q265-166 265-135Q265-105 284-85Q303-65 337-65Q372-65 390.50-84.50Q409-104 409-135Q409-166 390.50-186Q372-206 337-206M364 704Q294 704 253 740.50Q212 777 209 856L247 856Q257 814 288.50 796Q320 778 363 778Q408 778 438 796Q468 814 481 856L518 856Q510 777 471.50 740.50Q433 704 364 704Z"  horiz-adv-x="738" vert-adv-y="1000"  />

      
      <glyph glyph-name="unic5" unicode="&#xc5;" d="M224 0L2 0L2 38Q29 38 45.50 46.50Q62 55 76.50 78.50Q91 102 110 147L325 662L406 662L630 131Q651 83 672.50 60.50Q694 38 730 38L730 0L429 0L429 38Q442 38 456.50 40Q471 42 481 49Q491 56 491 72Q491 83 486 102.50Q481 122 472 143L439 226L431 250L330 522L326 522L216 250L209 226L169 129Q165 116 160.50 101.50Q156 87 156 74Q156 51 171.50 44.50Q187 38 224 38L224 0M456 214L191 214L208 262L439 262L456 214M364 696Q318 696 284.50 722Q251 748 251 796Q251 842 284 868.50Q317 895 364 895Q410 895 443.50 868Q477 841 477 795Q477 747 443.50 721.50Q410 696 364 696M363 742Q391 742 403.50 757Q416 772 416 796Q416 819 403.50 834.50Q391 850 364 850Q337 850 324.50 834.50Q312 819 312 796Q312 772 324.50 757Q337 742 363 742Z"  horiz-adv-x="738" vert-adv-y="1000"  />

      
      <glyph glyph-name="uni01FA" unicode="&#x01FA;" d="M224 0L2 0L2 38Q29 38 45.50 46.50Q62 55 76.50 78.50Q91 102 110 147L325 662L406 662L630 131Q651 83 672.50 60.50Q694 38 730 38L730 0L429 0L429 38Q442 38 456.50 40Q471 42 481 49Q491 56 491 72Q491 83 486 102.50Q481 122 472 143L439 226L431 250L330 522L326 522L216 250L209 226L169 129Q165 116 160.50 101.50Q156 87 156 74Q156 51 171.50 44.50Q187 38 224 38L224 0M456 214L191 214L208 262L439 262L456 214M364 681Q318 681 284.50 707Q251 733 251 781Q251 827 284 853.50Q317 880 364 880Q410 880 443.50 853Q477 826 477 780Q477 732 443.50 706.50Q410 681 364 681M363 727Q391 727 403.50 742Q416 757 416 781Q416 804 403.50 819.50Q391 835 364 835Q337 835 324.50 819.50Q312 804 312 781Q312 757 324.50 742Q337 727 363 727M320 901L262 901L365 1032L478 1032L478 1004L320 901Z"  horiz-adv-x="738" vert-adv-y="1000"  />

      
      <glyph glyph-name="uni1EA2" unicode="&#x1EA2;" d="M224 0L2 0L2 38Q29 38 45.50 46.50Q62 55 76.50 78.50Q91 102 110 147L325 662L406 662L630 131Q651 83 672.50 60.50Q694 38 730 38L730 0L429 0L429 38Q442 38 456.50 40Q471 42 481 49Q491 56 491 72Q491 83 486 102.50Q481 122 472 143L439 226L431 250L330 522L326 522L216 250L209 226L169 129Q165 116 160.50 101.50Q156 87 156 74Q156 51 171.50 44.50Q187 38 224 38L224 0M456 214L191 214L208 262L439 262L456 214M395 698L342 698L342 752Q378 753 391.50 769Q405 785 405 820Q405 851 397.50 859Q390 867 377 867Q362 867 354.50 860Q347 853 343 843.50Q339 834 332.50 827Q326 820 313 820Q298 820 290 829Q282 838 282 850Q282 877 312.50 890Q343 903 380 903Q431 903 457 878.50Q483 854 483 818Q483 788 468 770Q453 752 432 743Q411 734 395 731L395 698Z"  horiz-adv-x="738" vert-adv-y="1000"  />

      
      <glyph glyph-name="uni1E00" unicode="&#x1E00;" d="M224 0L2 0L2 38Q29 38 45.50 46.50Q62 55 76.50 78.50Q91 102 110 147L325 662L406 662L630 131Q651 83 672.50 60.50Q694 38 730 38L730 0L429 0L429 38Q442 38 456.50 40Q471 42 481 49Q491 56 491 72Q491 83 486 102.50Q481 122 472 143L439 226L431 250L330 522L326 522L216 250L209 226L169 129Q165 116 160.50 101.50Q156 87 156 74Q156 51 171.50 44.50Q187 38 224 38L224 0M456 214L191 214L208 262L439 262L456 214M337-257Q292-257 259.50-230.50Q227-204 227-153Q227-106 259-78.50Q291-51 337-51Q383-51 415-78.50Q447-106 447-154Q447-205 415-231Q383-257 337-257M337-211Q364-211 376.50-195Q389-179 389-153Q389-129 376.50-112.50Q364-96 337-96Q310-96 297.50-112.50Q285-129 285-153Q285-179 297.50-195Q310-211 337-211Z"  horiz-adv-x="738" vert-adv-y="1000"  />

      
      <glyph glyph-name="uni1EA0" unicode="&#x1EA0;" d="M224 0L2 0L2 38Q29 38 45.50 46.50Q62 55 76.50 78.50Q91 102 110 147L325 662L406 662L630 131Q651 83 672.50 60.50Q694 38 730 38L730 0L429 0L429 38Q442 38 456.50 40Q471 42 481 49Q491 56 491 72Q491 83 486 102.50Q481 122 472 143L439 226L431 250L330 522L326 522L216 250L209 226L169 129Q165 116 160.50 101.50Q156 87 156 74Q156 51 171.50 44.50Q187 38 224 38L224 0M456 214L191 214L208 262L439 262L456 214M337-206Q304-206 284.50-186Q265-166 265-135Q265-105 284-85Q303-65 337-65Q372-65 390.50-84.50Q409-104 409-135Q409-166 390.50-186Q372-206 337-206Z"  horiz-adv-x="738" vert-adv-y="1000"  />

      
      <glyph glyph-name="uni0104" unicode="&#x0104;" d="M434-219Q389-219 360-196Q331-173 331-127Q331-97 343.50-73.50Q356-50 376-32Q396-14 417 1Q451 25 471 39.50Q491 54 491 73Q491 85 486 103.50Q481 122 469 150L439 226L432 250L330 522L327 522L217 250L209 226L169 129Q165 116 160.50 101.50Q156 87 156 73Q156 51 172 44.50Q188 38 224 38L224 0L3 0L3 38Q23 38 37 43Q51 48 62.50 60Q74 72 86 95Q98 118 113 155L325 662L407 662L630 131Q651 83 673 60.50Q695 38 731 38L731 0L536 0Q497 0 470-15Q443-30 429.50-53.50Q416-77 416-104Q416-133 430-146Q444-159 471-159Q494-159 510-152Q526-145 548-129L568-153Q539-182 509.50-200.50Q480-219 434-219M457 214L191 214L208 262L440 262L457 214Z"  horiz-adv-x="738" vert-adv-y="1000"  />

      
      <glyph glyph-name="unic6" unicode="&#xc6;" d="M205 0L-25 0L-25 38Q3 38 21.50 48.50Q40 59 56.50 82Q73 105 93 142L322 546Q327 557 331 567Q335 577 335 588Q335 608 319.50 613.50Q304 619 274 619L274 657L867 657L873 482L829 482Q822 532 807.50 557.50Q793 583 763 592Q733 601 680 601L545 601L545 349L639 349Q685 349 709 355Q733 361 741.50 380.50Q750 400 750 440L792 440L792 212L750 212Q750 252 741.50 271Q733 290 709 295.50Q685 301 639 301L545 301L545 55L661 55Q713 55 746 60Q779 65 799.50 79.50Q820 94 834 121.50Q848 149 861 193L904 193L876 0L321 0L321 38Q367 38 387 45.50Q407 53 412.50 77.50Q418 102 418 153L418 301L236 301L259 349L418 349L418 601L411 601L266 338L256 313L153 127Q147 118 142 104.50Q137 91 137 76Q137 53 153.50 45.50Q170 38 205 38L205 0Z"  horiz-adv-x="932" vert-adv-y="1000"  />

      
      <glyph glyph-name="uni01FC" unicode="&#x01FC;" d="M223 0L-7 0L-7 38Q21 38 39.50 48.50Q58 59 74.50 82Q91 105 111 142L340 546Q345 557 349 567Q353 577 353 588Q353 608 337.50 613.50Q322 619 292 619L292 657L885 657L891 482L847 482Q840 532 825.50 557.50Q811 583 781 592Q751 601 698 601L563 601L563 349L657 349Q703 349 727 355Q751 361 759.50 380.50Q768 400 768 440L810 440L810 212L768 212Q768 252 759.50 271Q751 290 727 295.50Q703 301 657 301L563 301L563 55L679 55Q731 55 764 60Q797 65 817.50 79.50Q838 94 852 121.50Q866 149 879 193L922 193L894 0L339 0L339 38Q385 38 405 45.50Q425 53 430.50 77.50Q436 102 436 153L436 301L254 301L277 349L436 349L436 601L429 601L284 338L274 313L171 127Q165 118 160 104.50Q155 91 155 76Q155 53 171.50 45.50Q188 38 223 38L223 0M560 698L502 698L605 829L718 829L718 801L560 698Z"  horiz-adv-x="939" vert-adv-y="1000"  />

      
      <glyph glyph-name="uni1E02" unicode="&#x1E02;" d="M372 0L35 0L35 38Q76 38 96 45Q116 52 123 72Q130 92 130 131L130 530Q130 569 122.50 588Q115 607 95 612.50Q75 618 35 618L35 657L346 657Q437 657 490 638.50Q543 620 566 586Q589 552 589 505Q589 438 548.50 404Q508 370 444 353L444 347Q487 341 527.50 323Q568 305 594 270.50Q620 236 620 177Q620 90 555.50 45Q491 0 372 0M320 45Q351 45 379.50 49Q408 53 429.50 65.50Q451 78 463.50 104.50Q476 131 476 177Q476 236 453.50 266.50Q431 297 396 307.50Q361 318 320 318L258 318L258 48Q273 47 288 46Q303 45 320 45M258 605L258 367L314 367Q394 367 422.50 395.50Q451 424 451 490Q451 549 421 578.50Q391 608 310 608Q298 608 285 607.50Q272 607 258 605M314 699Q280 699 261 718.50Q242 738 242 768Q242 799 261 818Q280 837 314 837Q348 837 366.50 818Q385 799 385 768Q385 738 366 718.50Q347 699 314 699Z"  horiz-adv-x="652" vert-adv-y="1000"  />

      
      <glyph glyph-name="uni1E06" unicode="&#x1E06;" d="M372 0L35 0L35 38Q76 38 96 45Q116 52 123 72Q130 92 130 131L130 530Q130 569 122.50 588Q115 607 95 612.50Q75 618 35 618L35 657L346 657Q437 657 490 638.50Q543 620 566 586Q589 552 589 505Q589 438 548.50 404Q508 370 444 353L444 347Q487 341 527.50 323Q568 305 594 270.50Q620 236 620 177Q620 90 555.50 45Q491 0 372 0M320 45Q351 45 379.50 49Q408 53 429.50 65.50Q451 78 463.50 104.50Q476 131 476 177Q476 236 453.50 266.50Q431 297 396 307.50Q361 318 320 318L258 318L258 48Q273 47 288 46Q303 45 320 45M258 605L258 367L314 367Q394 367 422.50 395.50Q451 424 451 490Q451 549 421 578.50Q391 608 310 608Q298 608 285 607.50Q272 607 258 605M458-147L168-147L168-80L458-80L458-147Z"  horiz-adv-x="652" vert-adv-y="1000"  />

      
      <glyph glyph-name="uni1E04" unicode="&#x1E04;" d="M372 0L35 0L35 38Q76 38 96 45Q116 52 123 72Q130 92 130 131L130 530Q130 569 122.50 588Q115 607 95 612.50Q75 618 35 618L35 657L346 657Q437 657 490 638.50Q543 620 566 586Q589 552 589 505Q589 438 548.50 404Q508 370 444 353L444 347Q487 341 527.50 323Q568 305 594 270.50Q620 236 620 177Q620 90 555.50 45Q491 0 372 0M320 45Q351 45 379.50 49Q408 53 429.50 65.50Q451 78 463.50 104.50Q476 131 476 177Q476 236 453.50 266.50Q431 297 396 307.50Q361 318 320 318L258 318L258 48Q273 47 288 46Q303 45 320 45M258 605L258 367L314 367Q394 367 422.50 395.50Q451 424 451 490Q451 549 421 578.50Q391 608 310 608Q298 608 285 607.50Q272 607 258 605M313-206Q280-206 260.50-186Q241-166 241-135Q241-105 260-85Q279-65 313-65Q348-65 366.50-84.50Q385-104 385-135Q385-166 366.50-186Q348-206 313-206Z"  horiz-adv-x="652" vert-adv-y="1000"  />

      
      <glyph glyph-name="uni0106" unicode="&#x0106;" d="M362-12Q255-12 185 31.50Q115 75 81 151Q47 227 47 324Q47 436 89.50 513Q132 590 207.50 629.50Q283 669 382 669Q435 669 466 660.50Q497 652 515 643.50Q533 635 547 635Q562 635 568 646Q574 657 580 669L618 669L618 429L575 429Q556 525 507 572Q458 619 381 619Q284 619 234 547.50Q184 476 184 344Q184 248 209.50 188Q235 128 284.50 100.50Q334 73 404 73Q476 73 524.50 98.50Q573 124 616 172L645 146Q614 102 577 66Q540 30 488.50 9Q437-12 362-12M336 698L278 698L381 829L494 829L494 801L336 698Z"  horiz-adv-x="679" vert-adv-y="1000"  />

      
      <glyph glyph-name="uni0108" unicode="&#x0108;" d="M362-12Q255-12 185 31.50Q115 75 81 151Q47 227 47 324Q47 436 89.50 513Q132 590 207.50 629.50Q283 669 382 669Q435 669 466 660.50Q497 652 515 643.50Q533 635 547 635Q562 635 568 646Q574 657 580 669L618 669L618 429L575 429Q556 525 507 572Q458 619 381 619Q284 619 234 547.50Q184 476 184 344Q184 248 209.50 188Q235 128 284.50 100.50Q334 73 404 73Q476 73 524.50 98.50Q573 124 616 172L645 146Q614 102 577 66Q540 30 488.50 9Q437-12 362-12M276 698L221 698L336 837L422 837L538 698L484 698L379 771L276 698Z"  horiz-adv-x="679" vert-adv-y="1000"  />

      
      <glyph glyph-name="uni010C" unicode="&#x010C;" d="M362-12Q255-12 185 31.50Q115 75 81 151Q47 227 47 324Q47 436 89.50 513Q132 590 207.50 629.50Q283 669 382 669Q435 669 466 660.50Q497 652 515 643.50Q533 635 547 635Q562 635 568 646Q574 657 580 669L618 669L618 429L575 429Q556 525 507 572Q458 619 381 619Q284 619 234 547.50Q184 476 184 344Q184 248 209.50 188Q235 128 284.50 100.50Q334 73 404 73Q476 73 524.50 98.50Q573 124 616 172L645 146Q614 102 577 66Q540 30 488.50 9Q437-12 362-12M422 698L337 698L220 837L275 837L379 764L483 837L537 837L422 698Z"  horiz-adv-x="679" vert-adv-y="1000"  />

      
      <glyph glyph-name="uni010A" unicode="&#x010A;" d="M362-12Q255-12 185 31.50Q115 75 81 151Q47 227 47 324Q47 436 89.50 513Q132 590 207.50 629.50Q283 669 382 669Q435 669 466 660.50Q497 652 515 643.50Q533 635 547 635Q562 635 568 646Q574 657 580 669L618 669L618 429L575 429Q556 525 507 572Q458 619 381 619Q284 619 234 547.50Q184 476 184 344Q184 248 209.50 188Q235 128 284.50 100.50Q334 73 404 73Q476 73 524.50 98.50Q573 124 616 172L645 146Q614 102 577 66Q540 30 488.50 9Q437-12 362-12M380 699Q346 699 327 718.50Q308 738 308 768Q308 799 327 818Q346 837 380 837Q414 837 432.50 818Q451 799 451 768Q451 738 432 718.50Q413 699 380 699Z"  horiz-adv-x="679" vert-adv-y="1000"  />

      
      <glyph glyph-name="unic7" unicode="&#xc7;" d="M362-12Q255-12 185 31.50Q115 75 81 151Q47 227 47 324Q47 436 89.50 513Q132 590 207.50 629.50Q283 669 382 669Q435 669 466 660.50Q497 652 515 643.50Q533 635 547 635Q562 635 568 646Q574 657 580 669L618 669L618 429L575 429Q556 525 507 572Q458 619 381 619Q284 619 234 547.50Q184 476 184 344Q184 248 209.50 188Q235 128 284.50 100.50Q334 73 404 73Q476 73 524.50 98.50Q573 124 616 172L645 146Q614 102 577 66Q540 30 488.50 9Q437-12 362-12M346-219Q317-219 296.50-207.50Q276-196 258-183L273-154Q287-162 302.50-168Q318-174 338-174Q360-174 374.50-164.50Q389-155 389-132Q389-116 379-105Q369-94 347-94Q335-94 325-95.50Q315-97 315-97L300-83L322 4L358 4L344-54Q344-54 351.50-53Q359-52 369-52Q410-52 435-72Q460-92 460-129Q460-174 428-196.50Q396-219 346-219Z"  horiz-adv-x="679" vert-adv-y="1000"  />

      
      <glyph glyph-name="uni1E08" unicode="&#x1E08;" d="M362-12Q255-12 185 31.50Q115 75 81 151Q47 227 47 324Q47 436 89.50 513Q132 590 207.50 629.50Q283 669 382 669Q435 669 466 660.50Q497 652 515 643.50Q533 635 547 635Q562 635 568 646Q574 657 580 669L618 669L618 429L575 429Q556 525 507 572Q458 619 381 619Q284 619 234 547.50Q184 476 184 344Q184 248 209.50 188Q235 128 284.50 100.50Q334 73 404 73Q476 73 524.50 98.50Q573 124 616 172L645 146Q614 102 577 66Q540 30 488.50 9Q437-12 362-12M346-219Q317-219 296.50-207.50Q276-196 258-183L273-154Q287-162 302.50-168Q318-174 338-174Q360-174 374.50-164.50Q389-155 389-132Q389-116 379-105Q369-94 347-94Q335-94 325-95.50Q315-97 315-97L300-83L322 4L358 4L344-54Q344-54 351.50-53Q359-52 369-52Q410-52 435-72Q460-92 460-129Q460-174 428-196.50Q396-219 346-219M335 698L277 698L380 829L493 829L493 801L335 698Z"  horiz-adv-x="679" vert-adv-y="1000"  />

      
      <glyph glyph-name="uni010E" unicode="&#x010E;" d="M325 0L35 0L35 38Q77 38 97.50 44.50Q118 51 124 71.50Q130 92 130 132L130 534Q130 571 121 588.50Q112 606 91.50 611.50Q71 617 35 617L35 657L318 657Q394 657 464 642.50Q534 628 588.50 592.50Q643 557 674.50 495Q706 433 706 337Q706 243 677.50 178.50Q649 114 597 74.50Q545 35 475.50 17.50Q406 0 325 0M308 50Q389 50 447 73Q505 96 536 155.50Q567 215 567 327Q567 462 502 534Q437 606 300 606Q290 606 280.50 606Q271 606 257 605L257 52Q270 51 283 50.50Q296 50 308 50M398 698L313 698L196 837L251 837L355 764L459 837L513 837L398 698Z"  horiz-adv-x="753" vert-adv-y="1000"  />

      
      <glyph glyph-name="uni1E0A" unicode="&#x1E0A;" d="M325 0L35 0L35 38Q77 38 97.50 44.50Q118 51 124 71.50Q130 92 130 132L130 534Q130 571 121 588.50Q112 606 91.50 611.50Q71 617 35 617L35 657L318 657Q394 657 464 642.50Q534 628 588.50 592.50Q643 557 674.50 495Q706 433 706 337Q706 243 677.50 178.50Q649 114 597 74.50Q545 35 475.50 17.50Q406 0 325 0M308 50Q389 50 447 73Q505 96 536 155.50Q567 215 567 327Q567 462 502 534Q437 606 300 606Q290 606 280.50 606Q271 606 257 605L257 52Q270 51 283 50.50Q296 50 308 50M356 699Q322 699 303 718.50Q284 738 284 768Q284 799 303 818Q322 837 356 837Q390 837 408.50 818Q427 799 427 768Q427 738 408 718.50Q389 699 356 699Z"  horiz-adv-x="753" vert-adv-y="1000"  />

      
      <glyph glyph-name="uni1E12" unicode="&#x1E12;" d="M325 0L35 0L35 38Q77 38 97.50 44.50Q118 51 124 71.50Q130 92 130 132L130 534Q130 571 121 588.50Q112 606 91.50 611.50Q71 617 35 617L35 657L318 657Q394 657 464 642.50Q534 628 588.50 592.50Q643 557 674.50 495Q706 433 706 337Q706 243 677.50 178.50Q649 114 597 74.50Q545 35 475.50 17.50Q406 0 325 0M308 50Q389 50 447 73Q505 96 536 155.50Q567 215 567 327Q567 462 502 534Q437 606 300 606Q290 606 280.50 606Q271 606 257 605L257 52Q270 51 283 50.50Q296 50 308 50M237-203L185-203L293-50L376-50L483-203L432-203L335-113L237-203Z"  horiz-adv-x="753" vert-adv-y="1000"  />

      
      <glyph glyph-name="uni1E0E" unicode="&#x1E0E;" d="M325 0L35 0L35 38Q77 38 97.50 44.50Q118 51 124 71.50Q130 92 130 132L130 534Q130 571 121 588.50Q112 606 91.50 611.50Q71 617 35 617L35 657L318 657Q394 657 464 642.50Q534 628 588.50 592.50Q643 557 674.50 495Q706 433 706 337Q706 243 677.50 178.50Q649 114 597 74.50Q545 35 475.50 17.50Q406 0 325 0M308 50Q389 50 447 73Q505 96 536 155.50Q567 215 567 327Q567 462 502 534Q437 606 300 606Q290 606 280.50 606Q271 606 257 605L257 52Q270 51 283 50.50Q296 50 308 50M479-147L189-147L189-80L479-80L479-147Z"  horiz-adv-x="753" vert-adv-y="1000"  />

      
      <glyph glyph-name="uni1E0C" unicode="&#x1E0C;" d="M325 0L35 0L35 38Q77 38 97.50 44.50Q118 51 124 71.50Q130 92 130 132L130 534Q130 571 121 588.50Q112 606 91.50 611.50Q71 617 35 617L35 657L318 657Q394 657 464 642.50Q534 628 588.50 592.50Q643 557 674.50 495Q706 433 706 337Q706 243 677.50 178.50Q649 114 597 74.50Q545 35 475.50 17.50Q406 0 325 0M308 50Q389 50 447 73Q505 96 536 155.50Q567 215 567 327Q567 462 502 534Q437 606 300 606Q290 606 280.50 606Q271 606 257 605L257 52Q270 51 283 50.50Q296 50 308 50M334-206Q301-206 281.50-186Q262-166 262-135Q262-105 281-85Q300-65 334-65Q369-65 387.50-84.50Q406-104 406-135Q406-166 387.50-186Q369-206 334-206Z"  horiz-adv-x="753" vert-adv-y="1000"  />

      
      <glyph glyph-name="uni1E10" unicode="&#x1E10;" d="M325 0L35 0L35 38Q77 38 97.50 44.50Q118 51 124 71.50Q130 92 130 132L130 534Q130 571 121 588.50Q112 606 91.50 611.50Q71 617 35 617L35 657L318 657Q394 657 464 642.50Q534 628 588.50 592.50Q643 557 674.50 495Q706 433 706 337Q706 243 677.50 178.50Q649 114 597 74.50Q545 35 475.50 17.50Q406 0 325 0M308 50Q389 50 447 73Q505 96 536 155.50Q567 215 567 327Q567 462 502 534Q437 606 300 606Q290 606 280.50 606Q271 606 257 605L257 52Q270 51 283 50.50Q296 50 308 50M285-293L272-263Q301-252 327-229.50Q353-207 353-160Q336-166 320-166Q295-166 279-151Q263-136 263-109Q263-82 280.50-63Q298-44 333-44Q373-44 393.50-70Q414-96 414-140Q414-178 400.50-204.50Q387-231 367-248.50Q347-266 324.50-276.50Q302-287 285-293Z"  horiz-adv-x="753" vert-adv-y="1000"  />

      
      <glyph glyph-name="uni0110" unicode="&#x0110;" d="M327 0L37 0L37 38Q79 38 99.50 44.50Q120 51 126 71.50Q132 92 132 132L132 534Q132 571 123.50 588.50Q115 606 94 611.50Q73 617 37 617L37 657L321 657Q397 657 466.50 642.50Q536 628 590.50 592.50Q645 557 677 494.50Q709 432 709 336Q709 242 680 178Q651 114 599 74.50Q547 35 477.50 17.50Q408 0 327 0M419 306L40 306L40 365L419 365L419 306M310 50Q391 50 449 73Q507 96 537.50 155.50Q568 215 568 326Q568 462 504 534Q440 606 302 606Q292 606 282.50 606Q273 606 260 605L260 52Q273 51 286 50.50Q299 50 310 50Z"  horiz-adv-x="753" vert-adv-y="1000"  />

      
      <glyph glyph-name="unic8" unicode="&#xc8;" d="M594 0L35 0L35 38Q72 38 92.50 43.50Q113 49 121.50 67Q130 85 130 123L130 527Q130 565 123.50 584.50Q117 604 96.50 611Q76 618 35 618L35 657L584 657L590 482L546 482Q539 529 525.50 555Q512 581 482.50 591Q453 601 395 601L257 601L257 362L357 362Q405 362 428.50 368Q452 374 459.50 393.50Q467 413 467 452L508 452L508 221L467 221Q467 263 459.50 282.50Q452 302 428.50 307.50Q405 313 357 313L257 313L257 55L379 55Q432 55 465 60.50Q498 66 518 81Q538 96 551 123Q564 150 577 193L619 193L594 0M442 698L384 698L226 801L226 829L340 829L442 698Z"  horiz-adv-x="647" vert-adv-y="1000"  />

      
      <glyph glyph-name="unic9" unicode="&#xc9;" d="M594 0L35 0L35 38Q72 38 92.50 43.50Q113 49 121.50 67Q130 85 130 123L130 527Q130 565 123.50 584.50Q117 604 96.50 611Q76 618 35 618L35 657L584 657L590 482L546 482Q539 529 525.50 555Q512 581 482.50 591Q453 601 395 601L257 601L257 362L357 362Q405 362 428.50 368Q452 374 459.50 393.50Q467 413 467 452L508 452L508 221L467 221Q467 263 459.50 282.50Q452 302 428.50 307.50Q405 313 357 313L257 313L257 55L379 55Q432 55 465 60.50Q498 66 518 81Q538 96 551 123Q564 150 577 193L619 193L594 0M296 698L238 698L341 829L454 829L454 801L296 698Z"  horiz-adv-x="647" vert-adv-y="1000"  />

      
      <glyph glyph-name="unica" unicode="&#xca;" d="M594 0L35 0L35 38Q72 38 92.50 43.50Q113 49 121.50 67Q130 85 130 123L130 527Q130 565 123.50 584.50Q117 604 96.50 611Q76 618 35 618L35 657L584 657L590 482L546 482Q539 529 525.50 555Q512 581 482.50 591Q453 601 395 601L257 601L257 362L357 362Q405 362 428.50 368Q452 374 459.50 393.50Q467 413 467 452L508 452L508 221L467 221Q467 263 459.50 282.50Q452 302 428.50 307.50Q405 313 357 313L257 313L257 55L379 55Q432 55 465 60.50Q498 66 518 81Q538 96 551 123Q564 150 577 193L619 193L594 0M237 698L182 698L297 837L383 837L499 698L445 698L340 771L237 698Z"  horiz-adv-x="647" vert-adv-y="1000"  />

      
      <glyph glyph-name="uni1EC0" unicode="&#x1EC0;" d="M594 0L35 0L35 38Q72 38 92.50 43.50Q113 49 121.50 67Q130 85 130 123L130 527Q130 565 123.50 584.50Q117 604 96.50 611Q76 618 35 618L35 657L584 657L590 482L546 482Q539 529 525.50 555Q512 581 482.50 591Q453 601 395 601L257 601L257 362L357 362Q405 362 428.50 368Q452 374 459.50 393.50Q467 413 467 452L508 452L508 221L467 221Q467 263 459.50 282.50Q452 302 428.50 307.50Q405 313 357 313L257 313L257 55L379 55Q432 55 465 60.50Q498 66 518 81Q538 96 551 123Q564 150 577 193L619 193L594 0M237 693L182 693L298 827L382 827L499 693L445 693L340 766L237 693M589 763L537 763L398 856L398 884L489 884L589 763Z"  horiz-adv-x="647" vert-adv-y="1000"  />

      
      <glyph glyph-name="uni1EBE" unicode="&#x1EBE;" d="M594 0L35 0L35 38Q72 38 92.50 43.50Q113 49 121.50 67Q130 85 130 123L130 527Q130 565 123.50 584.50Q117 604 96.50 611Q76 618 35 618L35 657L584 657L590 482L546 482Q539 529 525.50 555Q512 581 482.50 591Q453 601 395 601L257 601L257 362L357 362Q405 362 428.50 368Q452 374 459.50 393.50Q467 413 467 452L508 452L508 221L467 221Q467 263 459.50 282.50Q452 302 428.50 307.50Q405 313 357 313L257 313L257 55L379 55Q432 55 465 60.50Q498 66 518 81Q538 96 551 123Q564 150 577 193L619 193L594 0M237 693L182 693L298 827L382 827L499 693L445 693L340 766L237 693M500 763L448 763L547 884L638 884L638 856L500 763Z"  horiz-adv-x="647" vert-adv-y="1000"  />

      
      <glyph glyph-name="uni1EC4" unicode="&#x1EC4;" d="M594 0L35 0L35 38Q72 38 92.50 43.50Q113 49 121.50 67Q130 85 130 123L130 527Q130 565 123.50 584.50Q117 604 96.50 611Q76 618 35 618L35 657L584 657L590 482L546 482Q539 529 525.50 555Q512 581 482.50 591Q453 601 395 601L257 601L257 362L357 362Q405 362 428.50 368Q452 374 459.50 393.50Q467 413 467 452L508 452L508 221L467 221Q467 263 459.50 282.50Q452 302 428.50 307.50Q405 313 357 313L257 313L257 55L379 55Q432 55 465 60.50Q498 66 518 81Q538 96 551 123Q564 150 577 193L619 193L594 0M237 693L182 693L298 823L382 823L499 693L445 693L340 763L237 693M216 837L182 837Q191 885 218 912.50Q245 940 282 940Q306 940 330 932.50Q354 925 377 917Q400 909 421 909Q441 909 454.50 917.50Q468 926 474 944L507 944Q497 889 471.50 866Q446 843 408 843Q383 843 359.50 850.50Q336 858 314 865.50Q292 873 271 873Q250 873 236 864Q222 855 216 837Z"  horiz-adv-x="647" vert-adv-y="1000"  />

      
      <glyph glyph-name="uni1EC2" unicode="&#x1EC2;" d="M594 0L35 0L35 38Q72 38 92.50 43.50Q113 49 121.50 67Q130 85 130 123L130 527Q130 565 123.50 584.50Q117 604 96.50 611Q76 618 35 618L35 657L584 657L590 482L546 482Q539 529 525.50 555Q512 581 482.50 591Q453 601 395 601L257 601L257 362L357 362Q405 362 428.50 368Q452 374 459.50 393.50Q467 413 467 452L508 452L508 221L467 221Q467 263 459.50 282.50Q452 302 428.50 307.50Q405 313 357 313L257 313L257 55L379 55Q432 55 465 60.50Q498 66 518 81Q538 96 551 123Q564 150 577 193L619 193L594 0M237 693L182 693L298 827L382 827L499 693L445 693L340 766L237 693M502 763L450 763L450 814Q484 815 498 830.50Q512 846 512 880Q512 908 504 916Q496 924 485 924Q469 924 461.50 917Q454 910 450.50 901Q447 892 441.50 885Q436 878 423 878Q408 878 400 887Q392 896 392 908Q392 933 422 945.50Q452 958 487 958Q536 958 561 935Q586 912 586 878Q586 849 571.50 831.50Q557 814 537 805.50Q517 797 502 794L502 763Z"  horiz-adv-x="647" vert-adv-y="1000"  />

      
      <glyph glyph-name="uni1EC6" unicode="&#x1EC6;" d="M594 0L35 0L35 38Q72 38 92.50 43.50Q113 49 121.50 67Q130 85 130 123L130 527Q130 565 123.50 584.50Q117 604 96.50 611Q76 618 35 618L35 657L584 657L590 482L546 482Q539 529 525.50 555Q512 581 482.50 591Q453 601 395 601L257 601L257 362L357 362Q405 362 428.50 368Q452 374 459.50 393.50Q467 413 467 452L508 452L508 221L467 221Q467 263 459.50 282.50Q452 302 428.50 307.50Q405 313 357 313L257 313L257 55L379 55Q432 55 465 60.50Q498 66 518 81Q538 96 551 123Q564 150 577 193L619 193L594 0M237 698L182 698L297 837L383 837L499 698L445 698L340 771L237 698M340-206Q307-206 287.50-186Q268-166 268-135Q268-105 287-85Q306-65 340-65Q375-65 393.50-84.50Q412-104 412-135Q412-166 393.50-186Q375-206 340-206Z"  horiz-adv-x="647" vert-adv-y="1000"  />

      
      <glyph glyph-name="uni011A" unicode="&#x011A;" d="M594 0L35 0L35 38Q72 38 92.50 43.50Q113 49 121.50 67Q130 85 130 123L130 527Q130 565 123.50 584.50Q117 604 96.50 611Q76 618 35 618L35 657L584 657L590 482L546 482Q539 529 525.50 555Q512 581 482.50 591Q453 601 395 601L257 601L257 362L357 362Q405 362 428.50 368Q452 374 459.50 393.50Q467 413 467 452L508 452L508 221L467 221Q467 263 459.50 282.50Q452 302 428.50 307.50Q405 313 357 313L257 313L257 55L379 55Q432 55 465 60.50Q498 66 518 81Q538 96 551 123Q564 150 577 193L619 193L594 0M383 698L298 698L181 837L236 837L340 764L444 837L498 837L383 698Z"  horiz-adv-x="647" vert-adv-y="1000"  />

      
      <glyph glyph-name="uni1EBC" unicode="&#x1EBC;" d="M594 0L35 0L35 38Q72 38 92.50 43.50Q113 49 121.50 67Q130 85 130 123L130 527Q130 565 123.50 584.50Q117 604 96.50 611Q76 618 35 618L35 657L584 657L590 482L546 482Q539 529 525.50 555Q512 581 482.50 591Q453 601 395 601L257 601L257 362L357 362Q405 362 428.50 368Q452 374 459.50 393.50Q467 413 467 452L508 452L508 221L467 221Q467 263 459.50 282.50Q452 302 428.50 307.50Q405 313 357 313L257 313L257 55L379 55Q432 55 465 60.50Q498 66 518 81Q538 96 551 123Q564 150 577 193L619 193L594 0M214 705L179 705Q188 752 214 782Q240 812 283 812Q308 812 331.50 804.50Q355 797 377.50 789Q400 781 422 781Q444 781 457 790Q470 799 477 816L510 816Q500 762 475 735.50Q450 709 407 709Q380 709 357.50 717Q335 725 313.50 733Q292 741 269 741Q247 741 233.50 731.50Q220 722 214 705Z"  horiz-adv-x="647" vert-adv-y="1000"  />

      
      <glyph glyph-name="unicb" unicode="&#xcb;" d="M594 0L35 0L35 38Q72 38 92.50 43.50Q113 49 121.50 67Q130 85 130 123L130 527Q130 565 123.50 584.50Q117 604 96.50 611Q76 618 35 618L35 657L584 657L590 482L546 482Q539 529 525.50 555Q512 581 482.50 591Q453 601 395 601L257 601L257 362L357 362Q405 362 428.50 368Q452 374 459.50 393.50Q467 413 467 452L508 452L508 221L467 221Q467 263 459.50 282.50Q452 302 428.50 307.50Q405 313 357 313L257 313L257 55L379 55Q432 55 465 60.50Q498 66 518 81Q538 96 551 123Q564 150 577 193L619 193L594 0M450 702Q419 702 401 720.50Q383 739 383 768Q383 798 401 816Q419 834 450 834Q482 834 500 816Q518 798 518 769Q518 739 500 720.50Q482 702 450 702M229 702Q198 702 180 720.50Q162 739 162 768Q162 798 180 816Q198 834 229 834Q261 834 279 816Q297 798 297 769Q297 739 279 720.50Q261 702 229 702Z"  horiz-adv-x="647" vert-adv-y="1000"  />

      
      <glyph glyph-name="uni0112" unicode="&#x0112;" d="M594 0L35 0L35 38Q72 38 92.50 43.50Q113 49 121.50 67Q130 85 130 123L130 527Q130 565 123.50 584.50Q117 604 96.50 611Q76 618 35 618L35 657L584 657L590 482L546 482Q539 529 525.50 555Q512 581 482.50 591Q453 601 395 601L257 601L257 362L357 362Q405 362 428.50 368Q452 374 459.50 393.50Q467 413 467 452L508 452L508 221L467 221Q467 263 459.50 282.50Q452 302 428.50 307.50Q405 313 357 313L257 313L257 55L379 55Q432 55 465 60.50Q498 66 518 81Q538 96 551 123Q564 150 577 193L619 193L594 0M493 726L187 726L187 795L493 795L493 726Z"  horiz-adv-x="647" vert-adv-y="1000"  />

      
      <glyph glyph-name="uni1E14" unicode="&#x1E14;" d="M594 0L35 0L35 38Q72 38 92.50 43.50Q113 49 121.50 67Q130 85 130 123L130 527Q130 565 123.50 584.50Q117 604 96.50 611Q76 618 35 618L35 657L584 657L590 482L546 482Q539 529 525.50 555Q512 581 482.50 591Q453 601 395 601L257 601L257 362L357 362Q405 362 428.50 368Q452 374 459.50 393.50Q467 413 467 452L508 452L508 221L467 221Q467 263 459.50 282.50Q452 302 428.50 307.50Q405 313 357 313L257 313L257 55L379 55Q432 55 465 60.50Q498 66 518 81Q538 96 551 123Q564 150 577 193L619 193L594 0M493 716L187 716L187 785L493 785L493 716M442 821L384 821L226 924L226 952L340 952L442 821Z"  horiz-adv-x="647" vert-adv-y="1000"  />

      
      <glyph glyph-name="uni1E16" unicode="&#x1E16;" d="M594 0L35 0L35 38Q72 38 92.50 43.50Q113 49 121.50 67Q130 85 130 123L130 527Q130 565 123.50 584.50Q117 604 96.50 611Q76 618 35 618L35 657L584 657L590 482L546 482Q539 529 525.50 555Q512 581 482.50 591Q453 601 395 601L257 601L257 362L357 362Q405 362 428.50 368Q452 374 459.50 393.50Q467 413 467 452L508 452L508 221L467 221Q467 263 459.50 282.50Q452 302 428.50 307.50Q405 313 357 313L257 313L257 55L379 55Q432 55 465 60.50Q498 66 518 81Q538 96 551 123Q564 150 577 193L619 193L594 0M493 716L187 716L187 785L493 785L493 716M296 821L238 821L341 952L454 952L454 924L296 821Z"  horiz-adv-x="647" vert-adv-y="1000"  />

      
      <glyph glyph-name="uni0114" unicode="&#x0114;" d="M594 0L35 0L35 38Q72 38 92.50 43.50Q113 49 121.50 67Q130 85 130 123L130 527Q130 565 123.50 584.50Q117 604 96.50 611Q76 618 35 618L35 657L584 657L590 482L546 482Q539 529 525.50 555Q512 581 482.50 591Q453 601 395 601L257 601L257 362L357 362Q405 362 428.50 368Q452 374 459.50 393.50Q467 413 467 452L508 452L508 221L467 221Q467 263 459.50 282.50Q452 302 428.50 307.50Q405 313 357 313L257 313L257 55L379 55Q432 55 465 60.50Q498 66 518 81Q538 96 551 123Q564 150 577 193L619 193L594 0M340 704Q270 704 229 740.50Q188 777 185 856L223 856Q233 814 264.50 796Q296 778 339 778Q384 778 414 796Q444 814 457 856L494 856Q486 777 447.50 740.50Q409 704 340 704Z"  horiz-adv-x="647" vert-adv-y="1000"  />

      
      <glyph glyph-name="uni0116" unicode="&#x0116;" d="M594 0L35 0L35 38Q72 38 92.50 43.50Q113 49 121.50 67Q130 85 130 123L130 527Q130 565 123.50 584.50Q117 604 96.50 611Q76 618 35 618L35 657L584 657L590 482L546 482Q539 529 525.50 555Q512 581 482.50 591Q453 601 395 601L257 601L257 362L357 362Q405 362 428.50 368Q452 374 459.50 393.50Q467 413 467 452L508 452L508 221L467 221Q467 263 459.50 282.50Q452 302 428.50 307.50Q405 313 357 313L257 313L257 55L379 55Q432 55 465 60.50Q498 66 518 81Q538 96 551 123Q564 150 577 193L619 193L594 0M341 699Q307 699 288 718.50Q269 738 269 768Q269 799 288 818Q307 837 341 837Q375 837 393.50 818Q412 799 412 768Q412 738 393 718.50Q374 699 341 699Z"  horiz-adv-x="647" vert-adv-y="1000"  />

      
      <glyph glyph-name="uni1EBA" unicode="&#x1EBA;" d="M594 0L35 0L35 38Q72 38 92.50 43.50Q113 49 121.50 67Q130 85 130 123L130 527Q130 565 123.50 584.50Q117 604 96.50 611Q76 618 35 618L35 657L584 657L590 482L546 482Q539 529 525.50 555Q512 581 482.50 591Q453 601 395 601L257 601L257 362L357 362Q405 362 428.50 368Q452 374 459.50 393.50Q467 413 467 452L508 452L508 221L467 221Q467 263 459.50 282.50Q452 302 428.50 307.50Q405 313 357 313L257 313L257 55L379 55Q432 55 465 60.50Q498 66 518 81Q538 96 551 123Q564 150 577 193L619 193L594 0M361 698L308 698L308 752Q344 753 357.50 769Q371 785 371 820Q371 851 363.50 859Q356 867 343 867Q328 867 320.50 860Q313 853 309 843.50Q305 834 298.50 827Q292 820 279 820Q264 820 256 829Q248 838 248 850Q248 877 278.50 890Q309 903 346 903Q397 903 423 878.50Q449 854 449 818Q449 788 434 770Q419 752 398 743Q377 734 361 731L361 698Z"  horiz-adv-x="647" vert-adv-y="1000"  />

      
      <glyph glyph-name="uni1E18" unicode="&#x1E18;" d="M594 0L35 0L35 38Q72 38 92.50 43.50Q113 49 121.50 67Q130 85 130 123L130 527Q130 565 123.50 584.50Q117 604 96.50 611Q76 618 35 618L35 657L584 657L590 482L546 482Q539 529 525.50 555Q512 581 482.50 591Q453 601 395 601L257 601L257 362L357 362Q405 362 428.50 368Q452 374 459.50 393.50Q467 413 467 452L508 452L508 221L467 221Q467 263 459.50 282.50Q452 302 428.50 307.50Q405 313 357 313L257 313L257 55L379 55Q432 55 465 60.50Q498 66 518 81Q538 96 551 123Q564 150 577 193L619 193L594 0M243-203L191-203L299-50L382-50L489-203L438-203L341-113L243-203Z"  horiz-adv-x="647" vert-adv-y="1000"  />

      
      <glyph glyph-name="uni1E1A" unicode="&#x1E1A;" d="M594 0L35 0L35 38Q72 38 92.50 43.50Q113 49 121.50 67Q130 85 130 123L130 527Q130 565 123.50 584.50Q117 604 96.50 611Q76 618 35 618L35 657L584 657L590 482L546 482Q539 529 525.50 555Q512 581 482.50 591Q453 601 395 601L257 601L257 362L357 362Q405 362 428.50 368Q452 374 459.50 393.50Q467 413 467 452L508 452L508 221L467 221Q467 263 459.50 282.50Q452 302 428.50 307.50Q405 313 357 313L257 313L257 55L379 55Q432 55 465 60.50Q498 66 518 81Q538 96 551 123Q564 150 577 193L619 193L594 0M206-165L171-165Q179-115 207-83Q235-51 276-51Q306-51 327-61Q348-71 367-81Q386-91 408-91Q425-91 441-81Q457-71 465-47L498-47Q487-105 461.50-133.50Q436-162 391-162Q363-162 341.50-152Q320-142 301-132Q282-122 259-122Q241-122 226.50-132.50Q212-143 206-165Z"  horiz-adv-x="647" vert-adv-y="1000"  />

      
      <glyph glyph-name="uni1EB8" unicode="&#x1EB8;" d="M594 0L35 0L35 38Q72 38 92.50 43.50Q113 49 121.50 67Q130 85 130 123L130 527Q130 565 123.50 584.50Q117 604 96.50 611Q76 618 35 618L35 657L584 657L590 482L546 482Q539 529 525.50 555Q512 581 482.50 591Q453 601 395 601L257 601L257 362L357 362Q405 362 428.50 368Q452 374 459.50 393.50Q467 413 467 452L508 452L508 221L467 221Q467 263 459.50 282.50Q452 302 428.50 307.50Q405 313 357 313L257 313L257 55L379 55Q432 55 465 60.50Q498 66 518 81Q538 96 551 123Q564 150 577 193L619 193L594 0M340-206Q307-206 287.50-186Q268-166 268-135Q268-105 287-85Q306-65 340-65Q375-65 393.50-84.50Q412-104 412-135Q412-166 393.50-186Q375-206 340-206Z"  horiz-adv-x="647" vert-adv-y="1000"  />

      
      <glyph glyph-name="uni0228" unicode="&#x0228;" d="M594 0L35 0L35 38Q72 38 92.50 43.50Q113 49 121.50 67Q130 85 130 123L130 527Q130 565 123.50 584.50Q117 604 96.50 611Q76 618 35 618L35 657L584 657L590 482L546 482Q539 529 525.50 555Q512 581 482.50 591Q453 601 395 601L257 601L257 362L357 362Q405 362 428.50 368Q452 374 459.50 393.50Q467 413 467 452L508 452L508 221L467 221Q467 263 459.50 282.50Q452 302 428.50 307.50Q405 313 357 313L257 313L257 55L379 55Q432 55 465 60.50Q498 66 518 81Q538 96 551 123Q564 150 577 193L619 193L594 0M329-219Q300-219 279.50-207.50Q259-196 241-183L256-154Q270-162 285.50-168Q301-174 321-174Q343-174 357.50-164.50Q372-155 372-132Q372-116 362-105Q352-94 330-94Q318-94 308-95.50Q298-97 298-97L283-83L305 4L341 4L327-54Q327-54 334.50-53Q342-52 352-52Q393-52 418-72Q443-92 443-129Q443-174 411-196.50Q379-219 329-219Z"  horiz-adv-x="647" vert-adv-y="1000"  />

      
      <glyph glyph-name="uni1E1C" unicode="&#x1E1C;" d="M594 0L35 0L35 38Q72 38 92.50 43.50Q113 49 121.50 67Q130 85 130 123L130 527Q130 565 123.50 584.50Q117 604 96.50 611Q76 618 35 618L35 657L584 657L590 482L546 482Q539 529 525.50 555Q512 581 482.50 591Q453 601 395 601L257 601L257 362L357 362Q405 362 428.50 368Q452 374 459.50 393.50Q467 413 467 452L508 452L508 221L467 221Q467 263 459.50 282.50Q452 302 428.50 307.50Q405 313 357 313L257 313L257 55L379 55Q432 55 465 60.50Q498 66 518 81Q538 96 551 123Q564 150 577 193L619 193L594 0M329-219Q300-219 279.50-207.50Q259-196 241-183L256-154Q270-162 285.50-168Q301-174 321-174Q343-174 357.50-164.50Q372-155 372-132Q372-116 362-105Q352-94 330-94Q318-94 308-95.50Q298-97 298-97L283-83L305 4L341 4L327-54Q327-54 334.50-53Q342-52 352-52Q393-52 418-72Q443-92 443-129Q443-174 411-196.50Q379-219 329-219M340 704Q270 704 229 740.50Q188 777 185 856L223 856Q233 814 264.50 796Q296 778 339 778Q384 778 414 796Q444 814 457 856L494 856Q486 777 447.50 740.50Q409 704 340 704Z"  horiz-adv-x="647" vert-adv-y="1000"  />

      
      <glyph glyph-name="uni0118" unicode="&#x0118;" d="M479-219Q432-219 403-195Q374-171 374-134Q374-100 391-76Q408-52 431-34Q454-16 473-3L473 0L35 0L35 38Q72 38 92.50 43.50Q113 49 121.50 67Q130 85 130 123L130 527Q130 565 123.50 584.50Q117 604 96.50 611Q76 618 35 618L35 657L584 657L589 482L545 482Q538 529 525 555Q512 581 482.50 591Q453 601 395 601L257 601L257 362L356 362Q405 362 428 368Q451 374 458.50 393.50Q466 413 466 452L508 452L508 221L466 221Q466 263 458.50 282.50Q451 302 428 307.50Q405 313 356 313L257 313L257 55L379 55Q432 55 465 60.50Q498 66 518 81Q538 96 551 123Q564 150 577 193L619 193L594 0L533 0Q507-19 483.50-41.50Q460-64 460-104Q460-132 473.50-145.50Q487-159 510-159Q539-159 554.50-152Q570-145 592-129L612-153Q583-182 553.50-200.50Q524-219 479-219Z"  horiz-adv-x="647" vert-adv-y="1000"  />

      
      <glyph glyph-name="uni1E1E" unicode="&#x1E1E;" d="M361 0L35 0L35 38Q74 38 94.50 44.50Q115 51 122.50 69.50Q130 88 130 125L130 535Q130 570 122 588Q114 606 93.50 612Q73 618 35 618L35 657L586 657L593 480L548 480Q542 516 534.50 539.50Q527 563 512 576Q497 589 468.50 595Q440 601 391 601L257 601L257 359L349 359Q392 359 416.50 366Q441 373 451.50 393.50Q462 414 462 454L504 454L504 221L462 221Q462 262 451.50 280.50Q441 299 416.50 305Q392 311 349 311L257 311L257 118Q257 84 266.50 67Q276 50 299 44Q322 38 361 38L361 0M336 699Q302 699 283 718.50Q264 738 264 768Q264 799 283 818Q302 837 336 837Q370 837 388.50 818Q407 799 407 768Q407 738 388 718.50Q369 699 336 699Z"  horiz-adv-x="607" vert-adv-y="1000"  />

      
      <glyph glyph-name="uni011C" unicode="&#x011C;" d="M376-11Q210-11 128.50 77.50Q47 166 47 327Q47 442 90.50 518Q134 594 209 631.50Q284 669 379 669Q433 669 465 660Q497 651 515.50 641.50Q534 632 547 632Q562 632 568.50 643Q575 654 581 669L619 669L619 432L576 432Q558 532 508 575.50Q458 619 379 619Q281 619 232.50 547Q184 475 184 342Q184 193 232.50 118Q281 43 381 43Q426 43 456.50 54.50Q487 66 515 89L515 184Q515 220 509 238.50Q503 257 484.50 263.50Q466 270 428 270L428 310L698 310L698 270Q656 270 643.50 255.50Q631 241 631 194L631 57Q576 26 517.50 7.50Q459-11 376-11M275 698L220 698L335 837L421 837L537 698L483 698L378 771L275 698Z"  horiz-adv-x="732" vert-adv-y="1000"  />

      
      <glyph glyph-name="uni1E20" unicode="&#x1E20;" d="M376-11Q210-11 128.50 77.50Q47 166 47 327Q47 442 90.50 518Q134 594 209 631.50Q284 669 379 669Q433 669 465 660Q497 651 515.50 641.50Q534 632 547 632Q562 632 568.50 643Q575 654 581 669L619 669L619 432L576 432Q558 532 508 575.50Q458 619 379 619Q281 619 232.50 547Q184 475 184 342Q184 193 232.50 118Q281 43 381 43Q426 43 456.50 54.50Q487 66 515 89L515 184Q515 220 509 238.50Q503 257 484.50 263.50Q466 270 428 270L428 310L698 310L698 270Q656 270 643.50 255.50Q631 241 631 194L631 57Q576 26 517.50 7.50Q459-11 376-11M531 726L225 726L225 795L531 795L531 726Z"  horiz-adv-x="732" vert-adv-y="1000"  />

      
      <glyph glyph-name="uni011E" unicode="&#x011E;" d="M376-11Q210-11 128.50 77.50Q47 166 47 327Q47 442 90.50 518Q134 594 209 631.50Q284 669 379 669Q433 669 465 660Q497 651 515.50 641.50Q534 632 547 632Q562 632 568.50 643Q575 654 581 669L619 669L619 432L576 432Q558 532 508 575.50Q458 619 379 619Q281 619 232.50 547Q184 475 184 342Q184 193 232.50 118Q281 43 381 43Q426 43 456.50 54.50Q487 66 515 89L515 184Q515 220 509 238.50Q503 257 484.50 263.50Q466 270 428 270L428 310L698 310L698 270Q656 270 643.50 255.50Q631 241 631 194L631 57Q576 26 517.50 7.50Q459-11 376-11M378 704Q308 704 267 740.50Q226 777 223 856L261 856Q271 814 302.50 796Q334 778 377 778Q422 778 452 796Q482 814 495 856L532 856Q524 777 485.50 740.50Q447 704 378 704Z"  horiz-adv-x="732" vert-adv-y="1000"  />

      
      <glyph glyph-name="uni0120" unicode="&#x0120;" d="M376-11Q210-11 128.50 77.50Q47 166 47 327Q47 442 90.50 518Q134 594 209 631.50Q284 669 379 669Q433 669 465 660Q497 651 515.50 641.50Q534 632 547 632Q562 632 568.50 643Q575 654 581 669L619 669L619 432L576 432Q558 532 508 575.50Q458 619 379 619Q281 619 232.50 547Q184 475 184 342Q184 193 232.50 118Q281 43 381 43Q426 43 456.50 54.50Q487 66 515 89L515 184Q515 220 509 238.50Q503 257 484.50 263.50Q466 270 428 270L428 310L698 310L698 270Q656 270 643.50 255.50Q631 241 631 194L631 57Q576 26 517.50 7.50Q459-11 376-11M378 699Q344 699 325 718.50Q306 738 306 768Q306 799 325 818Q344 837 378 837Q412 837 430.50 818Q449 799 449 768Q449 738 430 718.50Q411 699 378 699Z"  horiz-adv-x="732" vert-adv-y="1000"  />

      
      <glyph glyph-name="uni0122" unicode="&#x0122;" d="M376-11Q210-11 128.50 77.50Q47 166 47 327Q47 442 90.50 518Q134 594 209 631.50Q284 669 379 669Q433 669 465 660Q497 651 515.50 641.50Q534 632 547 632Q562 632 568.50 643Q575 654 581 669L619 669L619 432L576 432Q558 532 508 575.50Q458 619 379 619Q281 619 232.50 547Q184 475 184 342Q184 193 232.50 118Q281 43 381 43Q426 43 456.50 54.50Q487 66 515 89L515 184Q515 220 509 238.50Q503 257 484.50 263.50Q466 270 428 270L428 310L698 310L698 270Q656 270 643.50 255.50Q631 241 631 194L631 57Q576 26 517.50 7.50Q459-11 376-11M316-293L303-263Q332-252 358-229.50Q384-207 384-160Q367-166 351-166Q326-166 310-151Q294-136 294-109Q294-82 311.50-63Q329-44 364-44Q404-44 424.50-70Q445-96 445-140Q445-178 431.50-204.50Q418-231 398-248.50Q378-266 355.50-276.50Q333-287 316-293Z"  horiz-adv-x="732" vert-adv-y="1000"  />

      
      <glyph glyph-name="uni0124" unicode="&#x0124;" d="M351 0L35 0L35 38Q79 38 99 45Q119 52 124.50 74Q130 96 130 139L130 516Q130 555 125 577.50Q120 600 100.50 609.50Q81 619 35 619L35 657L353 657L353 619Q308 619 287.50 609.50Q267 600 262.50 578Q258 556 258 516L258 359L562 359L562 516Q562 556 556.50 578Q551 600 531 609.50Q511 619 467 619L467 657L786 657L786 619Q740 619 719.50 609.50Q699 600 694 578Q689 556 689 516L689 139Q689 96 695 74Q701 52 721.50 45Q742 38 786 38L786 0L467 0L467 38Q511 38 531 45Q551 52 556.50 74Q562 96 562 139L562 310L258 310L258 139Q258 95 263 73.50Q268 52 288 45Q308 38 351 38L351 0M308 698L253 698L368 837L454 837L570 698L516 698L411 771L308 698Z"  horiz-adv-x="819" vert-adv-y="1000"  />

      
      <glyph glyph-name="uni1E26" unicode="&#x1E26;" d="M351 0L35 0L35 38Q79 38 99 45Q119 52 124.50 74Q130 96 130 139L130 516Q130 555 125 577.50Q120 600 100.50 609.50Q81 619 35 619L35 657L353 657L353 619Q308 619 287.50 609.50Q267 600 262.50 578Q258 556 258 516L258 359L562 359L562 516Q562 556 556.50 578Q551 600 531 609.50Q511 619 467 619L467 657L786 657L786 619Q740 619 719.50 609.50Q699 600 694 578Q689 556 689 516L689 139Q689 96 695 74Q701 52 721.50 45Q742 38 786 38L786 0L467 0L467 38Q511 38 531 45Q551 52 556.50 74Q562 96 562 139L562 310L258 310L258 139Q258 95 263 73.50Q268 52 288 45Q308 38 351 38L351 0M521 702Q490 702 472 720.50Q454 739 454 768Q454 798 472 816Q490 834 521 834Q553 834 571 816Q589 798 589 769Q589 739 571 720.50Q553 702 521 702M300 702Q269 702 251 720.50Q233 739 233 768Q233 798 251 816Q269 834 300 834Q332 834 350 816Q368 798 368 769Q368 739 350 720.50Q332 702 300 702Z"  horiz-adv-x="819" vert-adv-y="1000"  />

      
      <glyph glyph-name="uni1E22" unicode="&#x1E22;" d="M351 0L35 0L35 38Q79 38 99 45Q119 52 124.50 74Q130 96 130 139L130 516Q130 555 125 577.50Q120 600 100.50 609.50Q81 619 35 619L35 657L353 657L353 619Q308 619 287.50 609.50Q267 600 262.50 578Q258 556 258 516L258 359L562 359L562 516Q562 556 556.50 578Q551 600 531 609.50Q511 619 467 619L467 657L786 657L786 619Q740 619 719.50 609.50Q699 600 694 578Q689 556 689 516L689 139Q689 96 695 74Q701 52 721.50 45Q742 38 786 38L786 0L467 0L467 38Q511 38 531 45Q551 52 556.50 74Q562 96 562 139L562 310L258 310L258 139Q258 95 263 73.50Q268 52 288 45Q308 38 351 38L351 0M412 699Q378 699 359 718.50Q340 738 340 768Q340 799 359 818Q378 837 412 837Q446 837 464.50 818Q483 799 483 768Q483 738 464 718.50Q445 699 412 699Z"  horiz-adv-x="819" vert-adv-y="1000"  />

      
      <glyph glyph-name="uni1E2A" unicode="&#x1E2A;" d="M351 0L35 0L35 38Q79 38 99 45Q119 52 124.50 74Q130 96 130 139L130 516Q130 555 125 577.50Q120 600 100.50 609.50Q81 619 35 619L35 657L353 657L353 619Q308 619 287.50 609.50Q267 600 262.50 578Q258 556 258 516L258 359L562 359L562 516Q562 556 556.50 578Q551 600 531 609.50Q511 619 467 619L467 657L786 657L786 619Q740 619 719.50 609.50Q699 600 694 578Q689 556 689 516L689 139Q689 96 695 74Q701 52 721.50 45Q742 38 786 38L786 0L467 0L467 38Q511 38 531 45Q551 52 556.50 74Q562 96 562 139L562 310L258 310L258 139Q258 95 263 73.50Q268 52 288 45Q308 38 351 38L351 0M411-207Q341-207 301-168Q261-129 258-50L294-50Q306-100 335-115.50Q364-131 411-131Q443-131 465-125Q487-119 502-101.50Q517-84 527-50L563-50Q555-129 517.50-168Q480-207 411-207Z"  horiz-adv-x="819" vert-adv-y="1000"  />

      
      <glyph glyph-name="uni1E24" unicode="&#x1E24;" d="M351 0L35 0L35 38Q79 38 99 45Q119 52 124.50 74Q130 96 130 139L130 516Q130 555 125 577.50Q120 600 100.50 609.50Q81 619 35 619L35 657L353 657L353 619Q308 619 287.50 609.50Q267 600 262.50 578Q258 556 258 516L258 359L562 359L562 516Q562 556 556.50 578Q551 600 531 609.50Q511 619 467 619L467 657L786 657L786 619Q740 619 719.50 609.50Q699 600 694 578Q689 556 689 516L689 139Q689 96 695 74Q701 52 721.50 45Q742 38 786 38L786 0L467 0L467 38Q511 38 531 45Q551 52 556.50 74Q562 96 562 139L562 310L258 310L258 139Q258 95 263 73.50Q268 52 288 45Q308 38 351 38L351 0M411-206Q378-206 358.50-186Q339-166 339-135Q339-105 358-85Q377-65 411-65Q446-65 464.50-84.50Q483-104 483-135Q483-166 464.50-186Q446-206 411-206Z"  horiz-adv-x="819" vert-adv-y="1000"  />

      
      <glyph glyph-name="uni1E28" unicode="&#x1E28;" d="M351 0L35 0L35 38Q79 38 99 45Q119 52 124.50 74Q130 96 130 139L130 516Q130 555 125 577.50Q120 600 100.50 609.50Q81 619 35 619L35 657L353 657L353 619Q308 619 287.50 609.50Q267 600 262.50 578Q258 556 258 516L258 359L562 359L562 516Q562 556 556.50 578Q551 600 531 609.50Q511 619 467 619L467 657L786 657L786 619Q740 619 719.50 609.50Q699 600 694 578Q689 556 689 516L689 139Q689 96 695 74Q701 52 721.50 45Q742 38 786 38L786 0L467 0L467 38Q511 38 531 45Q551 52 556.50 74Q562 96 562 139L562 310L258 310L258 139Q258 95 263 73.50Q268 52 288 45Q308 38 351 38L351 0M179-219Q150-219 129.50-207.50Q109-196 91-183L106-154Q120-162 135.50-168Q151-174 171-174Q193-174 207.50-164.50Q222-155 222-132Q222-116 212-105Q202-94 180-94Q168-94 158-95.50Q148-97 148-97L133-83L155 4L191 4L177-54Q177-54 184.50-53Q192-52 202-52Q243-52 268-72Q293-92 293-129Q293-174 261-196.50Q229-219 179-219Z"  horiz-adv-x="819" vert-adv-y="1000"  />

      
      <glyph glyph-name="uni0126" unicode="&#x0126;" d="M356 0L40 0L40 38Q84 38 104 45Q124 52 129.50 74Q135 96 135 139L135 516Q135 555 130 577.50Q125 600 105.50 609.50Q86 619 40 619L40 657L358 657L358 619Q313 619 292.50 609.50Q272 600 267.50 578Q263 556 263 516L263 357L567 357L567 516Q567 556 561.50 578Q556 600 536 609.50Q516 619 472 619L472 657L791 657L791 619Q745 619 724.50 609.50Q704 600 699.50 578Q695 556 695 516L695 139Q695 96 700.50 74Q706 52 726.50 45Q747 38 791 38L791 0L472 0L472 38Q516 38 536 45Q556 52 561.50 74Q567 96 567 139L567 308L263 308L263 139Q263 95 268 73.50Q273 52 293 45Q313 38 356 38L356 0M790 461L40 461L40 511L790 511L790 461Z"  horiz-adv-x="830" vert-adv-y="1000"  />

      
      <glyph glyph-name="unicc" unicode="&#xcc;" d="M350 0L35 0L35 38Q79 38 99 45.50Q119 53 124.50 74.50Q130 96 130 139L130 516Q130 556 124.50 578Q119 600 99 609.50Q79 619 35 619L35 657L352 657L352 619Q307 619 286.50 609.50Q266 600 261.50 577.50Q257 555 257 516L257 139Q257 97 262.50 75Q268 53 287.50 45.50Q307 38 350 38L350 0M296 698L238 698L80 801L80 829L194 829L296 698Z"  horiz-adv-x="387" vert-adv-y="1000"  />

      
      <glyph glyph-name="unicd" unicode="&#xcd;" d="M350 0L35 0L35 38Q79 38 99 45.50Q119 53 124.50 74.50Q130 96 130 139L130 516Q130 556 124.50 578Q119 600 99 609.50Q79 619 35 619L35 657L352 657L352 619Q307 619 286.50 609.50Q266 600 261.50 577.50Q257 555 257 516L257 139Q257 97 262.50 75Q268 53 287.50 45.50Q307 38 350 38L350 0M150 698L92 698L195 829L308 829L308 801L150 698Z"  horiz-adv-x="387" vert-adv-y="1000"  />

      
      <glyph glyph-name="unice" unicode="&#xce;" d="M350 0L35 0L35 38Q79 38 99 45.50Q119 53 124.50 74.50Q130 96 130 139L130 516Q130 556 124.50 578Q119 600 99 609.50Q79 619 35 619L35 657L352 657L352 619Q307 619 286.50 609.50Q266 600 261.50 577.50Q257 555 257 516L257 139Q257 97 262.50 75Q268 53 287.50 45.50Q307 38 350 38L350 0M91 698L36 698L151 837L237 837L353 698L299 698L194 771L91 698Z"  horiz-adv-x="387" vert-adv-y="1000"  />

      
      <glyph glyph-name="uni0128" unicode="&#x0128;" d="M350 0L35 0L35 38Q79 38 99 45.50Q119 53 124.50 74.50Q130 96 130 139L130 516Q130 556 124.50 578Q119 600 99 609.50Q79 619 35 619L35 657L352 657L352 619Q307 619 286.50 609.50Q266 600 261.50 577.50Q257 555 257 516L257 139Q257 97 262.50 75Q268 53 287.50 45.50Q307 38 350 38L350 0M68 705L33 705Q42 752 68 782Q94 812 137 812Q162 812 185.50 804.50Q209 797 231.50 789Q254 781 276 781Q298 781 311 790Q324 799 331 816L364 816Q354 762 329 735.50Q304 709 261 709Q234 709 211.50 717Q189 725 167.50 733Q146 741 123 741Q101 741 87.50 731.50Q74 722 68 705Z"  horiz-adv-x="387" vert-adv-y="1000"  />

      
      <glyph glyph-name="unicf" unicode="&#xcf;" d="M350 0L35 0L35 38Q79 38 99 45.50Q119 53 124.50 74.50Q130 96 130 139L130 516Q130 556 124.50 578Q119 600 99 609.50Q79 619 35 619L35 657L352 657L352 619Q307 619 286.50 609.50Q266 600 261.50 577.50Q257 555 257 516L257 139Q257 97 262.50 75Q268 53 287.50 45.50Q307 38 350 38L350 0M304 702Q273 702 255 720.50Q237 739 237 768Q237 798 255 816Q273 834 304 834Q336 834 354 816Q372 798 372 769Q372 739 354 720.50Q336 702 304 702M83 702Q52 702 34 720.50Q16 739 16 768Q16 798 34 816Q52 834 83 834Q115 834 133 816Q151 798 151 769Q151 739 133 720.50Q115 702 83 702Z"  horiz-adv-x="387" vert-adv-y="1000"  />

      
      <glyph glyph-name="uni1E2E" unicode="&#x1E2E;" d="M350 0L35 0L35 38Q79 38 99 45.50Q119 53 124.50 74.50Q130 96 130 139L130 516Q130 556 124.50 578Q119 600 99 609.50Q79 619 35 619L35 657L352 657L352 619Q307 619 286.50 609.50Q266 600 261.50 577.50Q257 555 257 516L257 139Q257 97 262.50 75Q268 53 287.50 45.50Q307 38 350 38L350 0M305 692Q274 692 256 710.50Q238 729 238 758Q238 788 256 806Q274 824 305 824Q337 824 355 806Q373 788 373 759Q373 729 355 710.50Q337 692 305 692M84 692Q53 692 35 710.50Q17 729 17 758Q17 788 35 806Q53 824 84 824Q116 824 134 806Q152 788 152 759Q152 729 134 710.50Q116 692 84 692M151 847L93 847L196 978L309 978L309 950L151 847Z"  horiz-adv-x="387" vert-adv-y="1000"  />

      
      <glyph glyph-name="uni012A" unicode="&#x012A;" d="M350 0L35 0L35 38Q79 38 99 45.50Q119 53 124.50 74.50Q130 96 130 139L130 516Q130 556 124.50 578Q119 600 99 609.50Q79 619 35 619L35 657L352 657L352 619Q307 619 286.50 609.50Q266 600 261.50 577.50Q257 555 257 516L257 139Q257 97 262.50 75Q268 53 287.50 45.50Q307 38 350 38L350 0M347 726L41 726L41 795L347 795L347 726Z"  horiz-adv-x="387" vert-adv-y="1000"  />

      
      <glyph glyph-name="uni012C" unicode="&#x012C;" d="M350 0L35 0L35 38Q79 38 99 45.50Q119 53 124.50 74.50Q130 96 130 139L130 516Q130 556 124.50 578Q119 600 99 609.50Q79 619 35 619L35 657L352 657L352 619Q307 619 286.50 609.50Q266 600 261.50 577.50Q257 555 257 516L257 139Q257 97 262.50 75Q268 53 287.50 45.50Q307 38 350 38L350 0M194 704Q124 704 83 740.50Q42 777 39 856L77 856Q87 814 118.50 796Q150 778 193 778Q238 778 268 796Q298 814 311 856L348 856Q340 777 301.50 740.50Q263 704 194 704Z"  horiz-adv-x="387" vert-adv-y="1000"  />

      
      <glyph glyph-name="uni0130" unicode="&#x0130;" d="M350 0L35 0L35 38Q79 38 99 45.50Q119 53 124.50 74.50Q130 96 130 139L130 516Q130 556 124.50 578Q119 600 99 609.50Q79 619 35 619L35 657L352 657L352 619Q307 619 286.50 609.50Q266 600 261.50 577.50Q257 555 257 516L257 139Q257 97 262.50 75Q268 53 287.50 45.50Q307 38 350 38L350 0M195 699Q161 699 142 718.50Q123 738 123 768Q123 799 142 818Q161 837 195 837Q229 837 247.50 818Q266 799 266 768Q266 738 247 718.50Q228 699 195 699Z"  horiz-adv-x="387" vert-adv-y="1000"  />

      
      <glyph glyph-name="uni1EC8" unicode="&#x1EC8;" d="M350 0L35 0L35 38Q79 38 99 45.50Q119 53 124.50 74.50Q130 96 130 139L130 516Q130 556 124.50 578Q119 600 99 609.50Q79 619 35 619L35 657L352 657L352 619Q307 619 286.50 609.50Q266 600 261.50 577.50Q257 555 257 516L257 139Q257 97 262.50 75Q268 53 287.50 45.50Q307 38 350 38L350 0M216 698L163 698L163 752Q199 753 212.50 769Q226 785 226 820Q226 851 218.50 859Q211 867 198 867Q183 867 175.50 860Q168 853 164 843.50Q160 834 153.50 827Q147 820 134 820Q119 820 111 829Q103 838 103 850Q103 877 133.50 890Q164 903 201 903Q252 903 278 878.50Q304 854 304 818Q304 788 289 770Q274 752 253 743Q232 734 216 731L216 698Z"  horiz-adv-x="387" vert-adv-y="1000"  />

      
      <glyph glyph-name="uni1E2C" unicode="&#x1E2C;" d="M350 0L35 0L35 38Q79 38 99 45.50Q119 53 124.50 74.50Q130 96 130 139L130 516Q130 556 124.50 578Q119 600 99 609.50Q79 619 35 619L35 657L352 657L352 619Q307 619 286.50 609.50Q266 600 261.50 577.50Q257 555 257 516L257 139Q257 97 262.50 75Q268 53 287.50 45.50Q307 38 350 38L350 0M61-165L26-165Q34-115 62-83Q90-51 131-51Q161-51 182-61Q203-71 222-81Q241-91 263-91Q280-91 296-81Q312-71 320-47L353-47Q342-105 316.50-133.50Q291-162 246-162Q218-162 196.50-152Q175-142 156-132Q137-122 114-122Q96-122 81.50-132.50Q67-143 61-165Z"  horiz-adv-x="387" vert-adv-y="1000"  />

      
      <glyph glyph-name="uni1ECA" unicode="&#x1ECA;" d="M350 0L35 0L35 38Q79 38 99 45.50Q119 53 124.50 74.50Q130 96 130 139L130 516Q130 556 124.50 578Q119 600 99 609.50Q79 619 35 619L35 657L352 657L352 619Q307 619 286.50 609.50Q266 600 261.50 577.50Q257 555 257 516L257 139Q257 97 262.50 75Q268 53 287.50 45.50Q307 38 350 38L350 0M195-206Q162-206 142.50-186Q123-166 123-135Q123-105 142-85Q161-65 195-65Q230-65 248.50-84.50Q267-104 267-135Q267-166 248.50-186Q230-206 195-206Z"  horiz-adv-x="387" vert-adv-y="1000"  />

      
      <glyph glyph-name="uni012E" unicode="&#x012E;" d="M194-219Q146-219 117.50-195Q89-171 89-134Q89-99 105.50-75Q122-51 145-33.50Q168-16 188-3L188 0L35 0L35 38Q79 38 99 45.50Q119 53 124.50 74.50Q130 96 130 139L130 516Q130 556 124.50 578Q119 600 99 609.50Q79 619 35 619L35 657L352 657L352 619Q307 619 286.50 609.50Q266 600 261.50 577.50Q257 555 257 516L257 139Q257 97 262.50 75.50Q268 54 287.50 46Q307 38 350 38L350 0L248 0Q222-18 198-40.50Q174-63 174-104Q174-132 188-145.50Q202-159 225-159Q253-159 268.50-152Q284-145 306-129L326-153Q297-182 267.50-200.50Q238-219 194-219Z"  horiz-adv-x="387" vert-adv-y="1000"  />

      
      <glyph glyph-name="uni0134" unicode="&#x0134;" d="M132-13Q100-13 69-4.50Q38 4 19 23Q0 42 0 75Q0 101 14.50 117Q29 133 54 133Q75 133 87.50 122.50Q100 112 107.50 97Q115 82 121.50 66.50Q128 51 136.50 40.50Q145 30 159 30Q187 30 196 51Q205 72 205 129L205 516Q205 556 199.50 578Q194 600 173 609.50Q152 619 104 619L104 657L427 657L427 619Q383 619 363 609.50Q343 600 338 577.50Q333 555 333 516L333 160Q333 106 316 71.50Q299 37 270 18.50Q241 0 205.50-6.50Q170-13 132-13M163 698L108 698L223 837L309 837L425 698L371 698L266 771L163 698Z"  horiz-adv-x="443" vert-adv-y="1000"  />

      
      <glyph glyph-name="uni1E30" unicode="&#x1E30;" d="M350 0L35 0L35 38Q79 38 99 45.50Q119 53 124.50 74.50Q130 96 130 139L130 516Q130 556 125 578Q120 600 100 609.50Q80 619 35 619L35 657L353 657L353 619Q307 619 286.50 609.50Q266 600 261.50 577.50Q257 555 257 516L257 338L262 338L430 496Q463 526 477.50 545.50Q492 565 492 587Q492 603 483.50 610.50Q475 618 455 618L438 618L438 657L700 657L700 618Q672 617 652 610.50Q632 604 613 590.50Q594 577 566 551L368 370L651 82Q674 58 695.50 48Q717 38 752 38L752 0L424 0L424 38L442 38Q459 38 469.50 43Q480 48 480 59Q480 75 468 92.50Q456 110 427.50 140Q399 170 349 219L266 306L257 306L257 139Q257 97 262.50 75.50Q268 54 288 46Q308 38 350 38L350 0M336 698L278 698L381 829L494 829L494 801L336 698Z"  horiz-adv-x="755" vert-adv-y="1000"  />

      
      <glyph glyph-name="uni1E34" unicode="&#x1E34;" d="M350 0L35 0L35 38Q79 38 99 45.50Q119 53 124.50 74.50Q130 96 130 139L130 516Q130 556 125 578Q120 600 100 609.50Q80 619 35 619L35 657L353 657L353 619Q307 619 286.50 609.50Q266 600 261.50 577.50Q257 555 257 516L257 338L262 338L430 496Q463 526 477.50 545.50Q492 565 492 587Q492 603 483.50 610.50Q475 618 455 618L438 618L438 657L700 657L700 618Q672 617 652 610.50Q632 604 613 590.50Q594 577 566 551L368 370L651 82Q674 58 695.50 48Q717 38 752 38L752 0L424 0L424 38L442 38Q459 38 469.50 43Q480 48 480 59Q480 75 468 92.50Q456 110 427.50 140Q399 170 349 219L266 306L257 306L257 139Q257 97 262.50 75.50Q268 54 288 46Q308 38 350 38L350 0M526-147L236-147L236-80L526-80L526-147Z"  horiz-adv-x="755" vert-adv-y="1000"  />

      
      <glyph glyph-name="uni1E32" unicode="&#x1E32;" d="M350 0L35 0L35 38Q79 38 99 45.50Q119 53 124.50 74.50Q130 96 130 139L130 516Q130 556 125 578Q120 600 100 609.50Q80 619 35 619L35 657L353 657L353 619Q307 619 286.50 609.50Q266 600 261.50 577.50Q257 555 257 516L257 338L262 338L430 496Q463 526 477.50 545.50Q492 565 492 587Q492 603 483.50 610.50Q475 618 455 618L438 618L438 657L700 657L700 618Q672 617 652 610.50Q632 604 613 590.50Q594 577 566 551L368 370L651 82Q674 58 695.50 48Q717 38 752 38L752 0L424 0L424 38L442 38Q459 38 469.50 43Q480 48 480 59Q480 75 468 92.50Q456 110 427.50 140Q399 170 349 219L266 306L257 306L257 139Q257 97 262.50 75.50Q268 54 288 46Q308 38 350 38L350 0M381-206Q348-206 328.50-186Q309-166 309-135Q309-105 328-85Q347-65 381-65Q416-65 434.50-84.50Q453-104 453-135Q453-166 434.50-186Q416-206 381-206Z"  horiz-adv-x="755" vert-adv-y="1000"  />

      
      <glyph glyph-name="uni0136" unicode="&#x0136;" d="M350 0L35 0L35 38Q79 38 99 45.50Q119 53 124.50 74.50Q130 96 130 139L130 516Q130 556 125 578Q120 600 100 609.50Q80 619 35 619L35 657L353 657L353 619Q307 619 286.50 609.50Q266 600 261.50 577.50Q257 555 257 516L257 338L262 338L430 496Q463 526 477.50 545.50Q492 565 492 587Q492 603 483.50 610.50Q475 618 455 618L438 618L438 657L700 657L700 618Q672 617 652 610.50Q632 604 613 590.50Q594 577 566 551L368 370L651 82Q674 58 695.50 48Q717 38 752 38L752 0L424 0L424 38L442 38Q459 38 469.50 43Q480 48 480 59Q480 75 468 92.50Q456 110 427.50 140Q399 170 349 219L266 306L257 306L257 139Q257 97 262.50 75.50Q268 54 288 46Q308 38 350 38L350 0M332-293L319-263Q348-252 374-229.50Q400-207 400-160Q383-166 367-166Q342-166 326-151Q310-136 310-109Q310-82 327.50-63Q345-44 380-44Q420-44 440.50-70Q461-96 461-140Q461-178 447.50-204.50Q434-231 414-248.50Q394-266 371.50-276.50Q349-287 332-293Z"  horiz-adv-x="755" vert-adv-y="1000"  />

      
      <glyph glyph-name="uni0139" unicode="&#x0139;" d="M579 0L37 0L37 38Q78 38 98 45Q118 52 124 72Q130 92 130 131L130 522Q130 560 124 581Q118 602 98.50 610.50Q79 619 38 619L38 657L356 657L356 619Q314 619 293 610.50Q272 602 265 581Q258 560 258 521L258 111Q258 75 273.50 64.50Q289 54 333 54L389 54Q434 54 462.50 61Q491 68 509 85.50Q527 103 539 132Q551 161 564 205L608 205L579 0M193 698L135 698L238 829L351 829L351 801L193 698Z"  horiz-adv-x="625" vert-adv-y="1000"  />

      
      <glyph glyph-name="uni013D" unicode="&#x013D;" d="M579 0L37 0L37 38Q78 38 98 45Q118 52 124 72Q130 92 130 131L130 522Q130 560 124 581Q118 602 98.50 610.50Q79 619 38 619L38 657L356 657L356 619Q314 619 293 610.50Q272 602 265 581Q258 560 258 521L258 111Q258 75 273.50 64.50Q289 54 333 54L389 54Q434 54 462.50 61Q491 68 509 85.50Q527 103 539 132Q551 161 564 205L608 205L579 0M472 452L431 458L443 657L539 657L539 628Q536 586 516 538Q496 490 472 452Z"  horiz-adv-x="625" vert-adv-y="1000"  />

      
      <glyph glyph-name="uni1E38" unicode="&#x1E38;" d="M579 0L37 0L37 38Q78 38 98 45Q118 52 124 72Q130 92 130 131L130 522Q130 560 124 581Q118 602 98.50 610.50Q79 619 38 619L38 657L356 657L356 619Q314 619 293 610.50Q272 602 265 581Q258 560 258 521L258 111Q258 75 273.50 64.50Q289 54 333 54L389 54Q434 54 462.50 61Q491 68 509 85.50Q527 103 539 132Q551 161 564 205L608 205L579 0M309-206Q276-206 256.50-186Q237-166 237-135Q237-105 256-85Q275-65 309-65Q344-65 362.50-84.50Q381-104 381-135Q381-166 362.50-186Q344-206 309-206M350 726L44 726L44 795L350 795L350 726Z"  horiz-adv-x="625" vert-adv-y="1000"  />

      
      <glyph glyph-name="uni1E3C" unicode="&#x1E3C;" d="M579 0L37 0L37 38Q78 38 98 45Q118 52 124 72Q130 92 130 131L130 522Q130 560 124 581Q118 602 98.50 610.50Q79 619 38 619L38 657L356 657L356 619Q314 619 293 610.50Q272 602 265 581Q258 560 258 521L258 111Q258 75 273.50 64.50Q289 54 333 54L389 54Q434 54 462.50 61Q491 68 509 85.50Q527 103 539 132Q551 161 564 205L608 205L579 0M212-203L160-203L268-50L351-50L458-203L407-203L310-113L212-203Z"  horiz-adv-x="625" vert-adv-y="1000"  />

      
      <glyph glyph-name="uni1E3A" unicode="&#x1E3A;" d="M579 0L37 0L37 38Q78 38 98 45Q118 52 124 72Q130 92 130 131L130 522Q130 560 124 581Q118 602 98.50 610.50Q79 619 38 619L38 657L356 657L356 619Q314 619 293 610.50Q272 602 265 581Q258 560 258 521L258 111Q258 75 273.50 64.50Q289 54 333 54L389 54Q434 54 462.50 61Q491 68 509 85.50Q527 103 539 132Q551 161 564 205L608 205L579 0M454-147L164-147L164-80L454-80L454-147Z"  horiz-adv-x="625" vert-adv-y="1000"  />

      
      <glyph glyph-name="uni1E36" unicode="&#x1E36;" d="M579 0L37 0L37 38Q78 38 98 45Q118 52 124 72Q130 92 130 131L130 522Q130 560 124 581Q118 602 98.50 610.50Q79 619 38 619L38 657L356 657L356 619Q314 619 293 610.50Q272 602 265 581Q258 560 258 521L258 111Q258 75 273.50 64.50Q289 54 333 54L389 54Q434 54 462.50 61Q491 68 509 85.50Q527 103 539 132Q551 161 564 205L608 205L579 0M309-206Q276-206 256.50-186Q237-166 237-135Q237-105 256-85Q275-65 309-65Q344-65 362.50-84.50Q381-104 381-135Q381-166 362.50-186Q344-206 309-206Z"  horiz-adv-x="625" vert-adv-y="1000"  />

      
      <glyph glyph-name="uni013B" unicode="&#x013B;" d="M579 0L37 0L37 38Q78 38 98 45Q118 52 124 72Q130 92 130 131L130 522Q130 560 124 581Q118 602 98.50 610.50Q79 619 38 619L38 657L356 657L356 619Q314 619 293 610.50Q272 602 265 581Q258 560 258 521L258 111Q258 75 273.50 64.50Q289 54 333 54L389 54Q434 54 462.50 61Q491 68 509 85.50Q527 103 539 132Q551 161 564 205L608 205L579 0M260-293L247-263Q276-252 302-229.50Q328-207 328-160Q311-166 295-166Q270-166 254-151Q238-136 238-109Q238-82 255.50-63Q273-44 308-44Q348-44 368.50-70Q389-96 389-140Q389-178 375.50-204.50Q362-231 342-248.50Q322-266 299.50-276.50Q277-287 260-293Z"  horiz-adv-x="625" vert-adv-y="1000"  />

      
      <glyph glyph-name="uni013F" unicode="&#x013F;" d="M579 0L37 0L37 38Q78 38 98 45Q118 52 124 72Q130 92 130 131L130 522Q130 560 124 581Q118 602 98.50 610.50Q79 619 38 619L38 657L356 657L356 619Q314 619 293 610.50Q272 602 265 581Q258 560 258 521L258 111Q258 75 273.50 64.50Q289 54 333 54L389 54Q434 54 462.50 61Q491 68 509 85.50Q527 103 539 132Q551 161 564 205L608 205L579 0M516 295Q483 295 463.50 314.50Q444 334 444 365Q444 395 463 415Q482 435 516 435Q551 435 569.50 415.50Q588 396 588 365Q588 334 569.50 314.50Q551 295 516 295Z"  horiz-adv-x="645" vert-adv-y="1000"  />

      
      <glyph glyph-name="uni0141" unicode="&#x0141;" d="M584 0L42 0L42 38Q84 38 103.50 45Q123 52 129 72Q135 92 135 131L135 248L55 200L30 243L135 306L135 522Q135 560 129 581Q123 602 103.50 610.50Q84 619 43 619L43 657L361 657L361 619Q319 619 298 610.50Q277 602 270 581Q263 560 263 521L263 382L425 479L451 439L263 325L263 111Q263 75 278.50 64.50Q294 54 338 54L394 54Q439 54 468 61Q497 68 514.50 85.50Q532 103 544.50 132Q557 161 569 205L613 205L584 0Z"  horiz-adv-x="630" vert-adv-y="1000"  />

      
      <glyph glyph-name="uni1E3E" unicode="&#x1E3E;" d="M274 0L27 0L27 38Q67 38 86.50 44.50Q106 51 113 75Q120 99 120 150L120 526Q120 564 113 584Q106 604 86.50 611.50Q67 619 29 619L29 657L281 657L478 179L484 179L680 657L915 657L915 619Q881 619 862 611.50Q843 604 836 584Q829 564 829 527L829 122Q829 88 836.50 70Q844 52 863 45Q882 38 916 38L916 0L614 0L614 38Q653 38 672 45Q691 52 697 70Q703 88 703 122L703 532L697 532L475 0L416 0L190 532L185 532L185 150Q185 99 191.50 75Q198 51 217 44.50Q236 38 274 38L274 0M427 698L369 698L472 829L585 829L585 801L427 698Z"  horiz-adv-x="959" vert-adv-y="1000"  />

      
      <glyph glyph-name="uni1E40" unicode="&#x1E40;" d="M274 0L27 0L27 38Q67 38 86.50 44.50Q106 51 113 75Q120 99 120 150L120 526Q120 564 113 584Q106 604 86.50 611.50Q67 619 29 619L29 657L281 657L478 179L484 179L680 657L915 657L915 619Q881 619 862 611.50Q843 604 836 584Q829 564 829 527L829 122Q829 88 836.50 70Q844 52 863 45Q882 38 916 38L916 0L614 0L614 38Q653 38 672 45Q691 52 697 70Q703 88 703 122L703 532L697 532L475 0L416 0L190 532L185 532L185 150Q185 99 191.50 75Q198 51 217 44.50Q236 38 274 38L274 0M472 699Q438 699 419 718.50Q400 738 400 768Q400 799 419 818Q438 837 472 837Q506 837 524.50 818Q543 799 543 768Q543 738 524 718.50Q505 699 472 699Z"  horiz-adv-x="959" vert-adv-y="1000"  />

      
      <glyph glyph-name="uni1E42" unicode="&#x1E42;" d="M274 0L27 0L27 38Q67 38 86.50 44.50Q106 51 113 75Q120 99 120 150L120 526Q120 564 113 584Q106 604 86.50 611.50Q67 619 29 619L29 657L281 657L478 179L484 179L680 657L915 657L915 619Q881 619 862 611.50Q843 604 836 584Q829 564 829 527L829 122Q829 88 836.50 70Q844 52 863 45Q882 38 916 38L916 0L614 0L614 38Q653 38 672 45Q691 52 697 70Q703 88 703 122L703 532L697 532L475 0L416 0L190 532L185 532L185 150Q185 99 191.50 75Q198 51 217 44.50Q236 38 274 38L274 0M446-206Q413-206 393.50-186Q374-166 374-135Q374-105 393-85Q412-65 446-65Q481-65 499.50-84.50Q518-104 518-135Q518-166 499.50-186Q481-206 446-206Z"  horiz-adv-x="959" vert-adv-y="1000"  />

      
      <glyph glyph-name="uni0143" unicode="&#x0143;" d="M664-7L579-7L185 516L152 516L126 561Q108 586 93.50 598Q79 610 63.50 614.50Q48 619 26 619L26 657L240 657L598 182L603 182L603 490Q603 532 598 560.50Q593 589 573.50 604Q554 619 508 619L508 657L754 657L754 619Q713 619 693.50 604Q674 589 669 559.50Q664 530 664 488L664-7M271 0L26 0L26 38Q66 38 86 58.50Q106 79 113 116Q120 153 120 203L120 587L180 587L180 157Q180 107 187 81.50Q194 56 214 47Q234 38 271 38L271 0M359 698L301 698L404 829L517 829L517 801L359 698Z"  horiz-adv-x="775" vert-adv-y="1000"  />

      
      <glyph glyph-name="uni0147" unicode="&#x0147;" d="M664-7L579-7L185 516L152 516L126 561Q108 586 93.50 598Q79 610 63.50 614.50Q48 619 26 619L26 657L240 657L598 182L603 182L603 490Q603 532 598 560.50Q593 589 573.50 604Q554 619 508 619L508 657L754 657L754 619Q713 619 693.50 604Q674 589 669 559.50Q664 530 664 488L664-7M271 0L26 0L26 38Q66 38 86 58.50Q106 79 113 116Q120 153 120 203L120 587L180 587L180 157Q180 107 187 81.50Q194 56 214 47Q234 38 271 38L271 0M446 698L361 698L244 837L299 837L403 764L507 837L561 837L446 698Z"  horiz-adv-x="775" vert-adv-y="1000"  />

      
      <glyph glyph-name="unid1" unicode="&#xd1;" d="M664-7L579-7L185 516L152 516L126 561Q108 586 93.50 598Q79 610 63.50 614.50Q48 619 26 619L26 657L240 657L598 182L603 182L603 490Q603 532 598 560.50Q593 589 573.50 604Q554 619 508 619L508 657L754 657L754 619Q713 619 693.50 604Q674 589 669 559.50Q664 530 664 488L664-7M271 0L26 0L26 38Q66 38 86 58.50Q106 79 113 116Q120 153 120 203L120 587L180 587L180 157Q180 107 187 81.50Q194 56 214 47Q234 38 271 38L271 0M277 705L242 705Q251 752 277 782Q303 812 346 812Q371 812 394.50 804.50Q418 797 440.50 789Q463 781 485 781Q507 781 520 790Q533 799 540 816L573 816Q563 762 538 735.50Q513 709 470 709Q443 709 420.50 717Q398 725 376.50 733Q355 741 332 741Q310 741 296.50 731.50Q283 722 277 705Z"  horiz-adv-x="775" vert-adv-y="1000"  />

      
      <glyph glyph-name="uni1E44" unicode="&#x1E44;" d="M664-7L579-7L185 516L152 516L126 561Q108 586 93.50 598Q79 610 63.50 614.50Q48 619 26 619L26 657L240 657L598 182L603 182L603 490Q603 532 598 560.50Q593 589 573.50 604Q554 619 508 619L508 657L754 657L754 619Q713 619 693.50 604Q674 589 669 559.50Q664 530 664 488L664-7M271 0L26 0L26 38Q66 38 86 58.50Q106 79 113 116Q120 153 120 203L120 587L180 587L180 157Q180 107 187 81.50Q194 56 214 47Q234 38 271 38L271 0M403 699Q369 699 350 718.50Q331 738 331 768Q331 799 350 818Q369 837 403 837Q437 837 455.50 818Q474 799 474 768Q474 738 455 718.50Q436 699 403 699Z"  horiz-adv-x="775" vert-adv-y="1000"  />

      
      <glyph glyph-name="uni1E4A" unicode="&#x1E4A;" d="M664-7L579-7L185 516L152 516L126 561Q108 586 93.50 598Q79 610 63.50 614.50Q48 619 26 619L26 657L240 657L598 182L603 182L603 490Q603 532 598 560.50Q593 589 573.50 604Q554 619 508 619L508 657L754 657L754 619Q713 619 693.50 604Q674 589 669 559.50Q664 530 664 488L664-7M271 0L26 0L26 38Q66 38 86 58.50Q106 79 113 116Q120 153 120 203L120 587L180 587L180 157Q180 107 187 81.50Q194 56 214 47Q234 38 271 38L271 0M279-203L227-203L335-50L418-50L525-203L474-203L377-113L279-203Z"  horiz-adv-x="775" vert-adv-y="1000"  />

      
      <glyph glyph-name="uni1E48" unicode="&#x1E48;" d="M664-7L579-7L185 516L152 516L126 561Q108 586 93.50 598Q79 610 63.50 614.50Q48 619 26 619L26 657L240 657L598 182L603 182L603 490Q603 532 598 560.50Q593 589 573.50 604Q554 619 508 619L508 657L754 657L754 619Q713 619 693.50 604Q674 589 669 559.50Q664 530 664 488L664-7M271 0L26 0L26 38Q66 38 86 58.50Q106 79 113 116Q120 153 120 203L120 587L180 587L180 157Q180 107 187 81.50Q194 56 214 47Q234 38 271 38L271 0M521-147L231-147L231-80L521-80L521-147Z"  horiz-adv-x="775" vert-adv-y="1000"  />

      
      <glyph glyph-name="uni1E46" unicode="&#x1E46;" d="M664-7L579-7L185 516L152 516L126 561Q108 586 93.50 598Q79 610 63.50 614.50Q48 619 26 619L26 657L240 657L598 182L603 182L603 490Q603 532 598 560.50Q593 589 573.50 604Q554 619 508 619L508 657L754 657L754 619Q713 619 693.50 604Q674 589 669 559.50Q664 530 664 488L664-7M271 0L26 0L26 38Q66 38 86 58.50Q106 79 113 116Q120 153 120 203L120 587L180 587L180 157Q180 107 187 81.50Q194 56 214 47Q234 38 271 38L271 0M376-206Q343-206 323.50-186Q304-166 304-135Q304-105 323-85Q342-65 376-65Q411-65 429.50-84.50Q448-104 448-135Q448-166 429.50-186Q411-206 376-206Z"  horiz-adv-x="775" vert-adv-y="1000"  />

      
      <glyph glyph-name="uni0145" unicode="&#x0145;" d="M664-7L579-7L185 516L152 516L126 561Q108 586 93.50 598Q79 610 63.50 614.50Q48 619 26 619L26 657L240 657L598 182L603 182L603 490Q603 532 598 560.50Q593 589 573.50 604Q554 619 508 619L508 657L754 657L754 619Q713 619 693.50 604Q674 589 669 559.50Q664 530 664 488L664-7M271 0L26 0L26 38Q66 38 86 58.50Q106 79 113 116Q120 153 120 203L120 587L180 587L180 157Q180 107 187 81.50Q194 56 214 47Q234 38 271 38L271 0M328-293L315-263Q344-252 370-229.50Q396-207 396-160Q379-166 363-166Q338-166 322-151Q306-136 306-109Q306-82 323.50-63Q341-44 376-44Q416-44 436.50-70Q457-96 457-140Q457-178 443.50-204.50Q430-231 410-248.50Q390-266 367.50-276.50Q345-287 328-293Z"  horiz-adv-x="775" vert-adv-y="1000"  />

      
      <glyph glyph-name="unid2" unicode="&#xd2;" d="M372-13Q269-13 196.50 27Q124 67 85.50 144Q47 221 47 329Q47 433 85.50 509Q124 585 197.50 627Q271 669 372 669Q475 669 547.50 629Q620 589 658.50 514.50Q697 440 697 338Q697 230 658.50 151.50Q620 73 547.50 30Q475-13 372-13M373 35Q468 35 514 108.50Q560 182 560 335Q560 427 536.50 491Q513 555 470 588.50Q427 622 369 622Q284 622 234 547.50Q184 473 184 335Q184 194 231 114.50Q278 35 373 35M473 698L415 698L257 801L257 829L371 829L473 698Z"  horiz-adv-x="744" vert-adv-y="1000"  />

      
      <glyph glyph-name="unid3" unicode="&#xd3;" d="M372-13Q269-13 196.50 27Q124 67 85.50 144Q47 221 47 329Q47 433 85.50 509Q124 585 197.50 627Q271 669 372 669Q475 669 547.50 629Q620 589 658.50 514.50Q697 440 697 338Q697 230 658.50 151.50Q620 73 547.50 30Q475-13 372-13M373 35Q468 35 514 108.50Q560 182 560 335Q560 427 536.50 491Q513 555 470 588.50Q427 622 369 622Q284 622 234 547.50Q184 473 184 335Q184 194 231 114.50Q278 35 373 35M327 698L269 698L372 829L485 829L485 801L327 698Z"  horiz-adv-x="744" vert-adv-y="1000"  />

      
      <glyph glyph-name="unid4" unicode="&#xd4;" d="M372-13Q269-13 196.50 27Q124 67 85.50 144Q47 221 47 329Q47 433 85.50 509Q124 585 197.50 627Q271 669 372 669Q475 669 547.50 629Q620 589 658.50 514.50Q697 440 697 338Q697 230 658.50 151.50Q620 73 547.50 30Q475-13 372-13M373 35Q468 35 514 108.50Q560 182 560 335Q560 427 536.50 491Q513 555 470 588.50Q427 622 369 622Q284 622 234 547.50Q184 473 184 335Q184 194 231 114.50Q278 35 373 35M268 698L213 698L328 837L414 837L530 698L476 698L371 771L268 698Z"  horiz-adv-x="744" vert-adv-y="1000"  />

      
      <glyph glyph-name="uni1ED2" unicode="&#x1ED2;" d="M372-13Q269-13 196.50 27Q124 67 85.50 144Q47 221 47 329Q47 433 85.50 509Q124 585 197.50 627Q271 669 372 669Q475 669 547.50 629Q620 589 658.50 514.50Q697 440 697 338Q697 230 658.50 151.50Q620 73 547.50 30Q475-13 372-13M373 35Q468 35 514 108.50Q560 182 560 335Q560 427 536.50 491Q513 555 470 588.50Q427 622 369 622Q284 622 234 547.50Q184 473 184 335Q184 194 231 114.50Q278 35 373 35M268 693L213 693L329 827L413 827L530 693L476 693L371 766L268 693M620 763L568 763L429 856L429 884L520 884L620 763Z"  horiz-adv-x="744" vert-adv-y="1000"  />

      
      </font>
</defs>
</svg>
